<svg xmlns="http://www.w3.org/2000/svg" version="1.1" xmlns:xlink="http://www.w3.org/1999/xlink" xmlns:svgjs="http://svgjs.dev/svgjs" width="1440" height="560" preserveAspectRatio="none" viewBox="0 0 1440 560"><g mask="url(&quot;#SvgjsMask1000&quot;)" fill="none"><rect width="1440" height="560" x="0" y="0" fill="#1e3266"></rect><path d="M1512 560L0 560 L0 339.69Q51.99 319.68, 72 371.67Q123.59 303.26, 192 354.86Q235.29 278.15, 312 321.45Q358.92 296.37, 384 343.29Q418.08 257.37, 504 291.45Q549.59 265.04, 576 310.63Q645.13 259.76, 696 328.89Q739.3 252.19, 816 295.49Q875.76 283.25, 888 343.02Q931.21 314.23, 960 357.44Q972.06 297.5, 1032 309.56Q1076.88 282.44, 1104 327.33Q1153 304.33, 1176 353.34Q1218.26 323.6, 1248 365.85Q1284.39 282.24, 1368 318.63Q1393.02 271.65, 1440 296.67Q1481.4 266.08, 1512 307.48z" fill="#182f5d"></path><path d="M1464 560L0 560 L0 371.31Q58.42 357.73, 72 416.14Q99.56 371.69, 144 399.25Q196.69 379.94, 216 432.64Q227.83 372.47, 288 384.29Q356.18 332.47, 408 400.65Q450.2 322.85, 528 365.05Q599 316.05, 648 387.04Q720.46 339.5, 768 411.96Q821.29 345.25, 888 398.54Q970.78 361.32, 1008 444.1Q1038.5 402.6, 1080 433.09Q1104.39 385.49, 1152 409.88Q1169.1 354.98, 1224 372.07Q1278.41 306.48, 1344 360.89Q1422.01 318.9, 1464 396.92z" fill="#25467d"></path><path d="M1464 560L0 560 L0 420.42Q60.14 408.56, 72 468.71Q93.65 418.36, 144 440Q170.64 394.64, 216 421.29Q303.77 389.06, 336 476.83Q385.37 406.2, 456 455.57Q507.69 435.25, 528 486.94Q567.21 406.14, 648 445.35Q675.11 400.46, 720 427.57Q796.25 383.82, 840 460.07Q891.93 392, 960 443.93Q1010.01 373.94, 1080 423.95Q1183.38 407.32, 1200 510.7Q1213.23 451.93, 1272 465.16Q1348.94 422.1, 1392 499.04Q1435.65 470.7, 1464 514.35z" fill="#356cb1"></path><path d="M1560 560L0 560 L0 498.3Q92.03 470.33, 120 562.35Q165.82 488.17, 240 533.99Q283.61 505.6, 312 549.2Q354.36 519.56, 384 561.92Q432.95 538.87, 456 587.82Q458.15 517.97, 528 520.12Q556.33 476.45, 600 504.78Q677.85 462.63, 720 540.48Q800.34 500.82, 840 581.15Q855.83 476.98, 960 492.81Q1031.88 444.68, 1080 516.56Q1140.02 504.58, 1152 564.59Q1177.38 517.97, 1224 543.35Q1247.88 495.24, 1296 519.12Q1352.68 503.81, 1368 560.49Q1411.01 531.5, 1440 574.51Q1481.13 495.63, 1560 536.76z" fill="white"></path></g><defs><mask id="SvgjsMask1000"><rect width="1440" height="560" fill="#ffffff"></rect></mask></defs></svg>