<svg xmlns="http://www.w3.org/2000/svg" version="1.1" xmlns:xlink="http://www.w3.org/1999/xlink" xmlns:svgjs="http://svgjs.dev/svgjs" width="1440" height="560" preserveAspectRatio="none" viewBox="0 0 1440 560"><g mask="url(&quot;#SvgjsMask1000&quot;)" fill="none"><rect width="1440" height="560" x="0" y="0" fill="#0e2a47"></rect><circle r="9.245" cx="859.815" cy="380.725" filter="url(#SvgjsFilter1001)" fill="rgba(51, 121, 194, 0.58)"></circle><circle r="5.89" cx="356.15999999999997" cy="255.51" filter="url(#SvgjsFilter1001)" fill="rgba(51, 121, 194, 0.58)"></circle><circle r="7.72" cx="995.01" cy="284.12" filter="url(#SvgjsFilter1001)" fill="rgba(51, 121, 194, 0.58)"></circle><circle r="4.925" cx="1374.335" cy="323.855" filter="url(#SvgjsFilter1001)" fill="rgba(51, 121, 194, 0.58)"></circle><circle r="8.405" cx="599.8149999999999" cy="119.885" filter="url(#SvgjsFilter1001)" fill="rgba(51, 121, 194, 0.58)"></circle><circle r="8.11" cx="126.37" cy="73.34" filter="url(#SvgjsFilter1001)" fill="rgba(51, 121, 194, 0.58)"></circle><circle r="6.605" cx="744.9350000000001" cy="375.185" filter="url(#SvgjsFilter1001)" fill="rgba(51, 121, 194, 0.58)"></circle><circle r="4.98" cx="498.5" cy="258.57" filter="url(#SvgjsFilter1001)" fill="rgba(51, 121, 194, 0.58)"></circle><circle r="6.985" cx="1021.415" cy="427.315" filter="url(#SvgjsFilter1001)" fill="rgba(51, 121, 194, 0.58)"></circle><circle r="6.65" cx="1320.38" cy="202.04" filter="url(#SvgjsFilter1001)" fill="rgba(51, 121, 194, 0.58)"></circle><circle r="8.285" cx="250.065" cy="514.995" filter="url(#SvgjsFilter1001)" fill="rgba(51, 121, 194, 0.58)"></circle><circle r="4.75" cx="17.41" cy="403.84" filter="url(#SvgjsFilter1001)" fill="rgba(51, 121, 194, 0.58)"></circle><circle r="7.155" cx="436.47499999999997" cy="9.455" filter="url(#SvgjsFilter1001)" fill="rgba(51, 121, 194, 0.58)"></circle><circle r="8.45" cx="516.91" cy="506.28" filter="url(#SvgjsFilter1001)" fill="rgba(51, 121, 194, 0.58)"></circle><circle r="6.135" cx="472.675" cy="527.035" filter="url(#SvgjsFilter1001)" fill="rgba(51, 121, 194, 0.58)"></circle><circle r="5.015" cx="515.795" cy="166.40499999999997" filter="url(#SvgjsFilter1001)" fill="rgba(51, 121, 194, 0.58)"></circle><circle r="7.005" cx="1086.295" cy="440.78499999999997" filter="url(#SvgjsFilter1001)" fill="rgba(51, 121, 194, 0.58)"></circle><circle r="7.53" cx="996.93" cy="250.59" filter="url(#SvgjsFilter1001)" fill="rgba(51, 121, 194, 0.58)"></circle><circle r="7.735" cx="94.865" cy="100.135" filter="url(#SvgjsFilter1001)" fill="rgba(51, 121, 194, 0.58)"></circle><circle r="5.635" cx="1436.675" cy="207.075" filter="url(#SvgjsFilter1001)" fill="rgba(51, 121, 194, 0.58)"></circle><path d="M729.3 522.2L682 498.5 677 484.8 698.5 460.3 713.2 462.9 742.4 507.3C742.9 507.7 742.9 507.7 743.4 508.1 744.3 508.9 745.7 509.3 747.5 508.3 748.7 506.8 749.1 505.5 748.1 503.7L722.4 465 744.9 469.5 756.5 486.4C756.5 486.4 756.9 486.8 756.9 486.8 757.9 487.6 759.3 488 761 487 762.4 486.4 762.7 484.2 761.6 482.4L754.5 471.1 771.1 474.5C772.5 474.9 774.2 473.9 775 472S773.9 468.5 772 467.7L755.9 464.6 766.8 457.1C768.5 456.1 768.8 453.8 767.8 452.1 766.8 451.2 765 450.4 763.2 451.5L746.3 463 723.3 458.2 762 432.5C763.7 431.5 764 429.2 763.5 427.9 762 426.6 760.2 425.8 758.4 426.8L714.6 456.5 699.4 453.4 689.3 423.2 699.4 411.7 752.2 407.7C754 407.6 755.3 406.2 755.1 404.4S753.6 401.3 751.8 401.4L705.3 404.9 720.9 387.1 740.8 385.8C742.6 385.7 743.8 384.3 744.1 382S742.6 378.9 740.8 379L726.8 380.4 738.2 367.4C739.5 366 738.9 363.7 737.4 362.5 736 361.2 734.2 361.3 732.9 362.8L721.5 375.8 720.6 362.2C720.9 359.9 719.5 358.7 717.2 359.3 715.4 359.4 714.2 360.8 714.3 362.6L715.6 382.5 700 400.3 697.4 353.8C697.3 352 695.3 350.3 693.5 350.4S690.5 352 690.6 353.8L694.1 407 684 418.6 652.2 412.1 647.7 397.9 671.3 350.5C672.1 348.6 671.1 346.9 669.6 345.6 667.8 344.8 666 345.9 664.8 347.3L644.4 389 637 367.3 646.3 349C647.1 347.1 646 345.4 644.6 344.1 643.2 343.7 641 344.3 640.2 346.2L634.2 357.9 628.6 342C628 340.6 626.2 339.9 624.4 340 622.6 341 621.8 342.9 622.4 344.2L628 360.2 615.3 354.2C613.9 353.8 611.7 354.4 611.3 355.8 610.1 357.2 610.6 358.6 612.1 359.8 612.1 359.8 612.5 360.3 612.5 360.3L630.8 369.5 638.2 391.2 596.5 370.8C594.6 370.1 592.8 370.2 592 372 591.2 373.9 591.8 375.2 592.7 376.1 593.2 376.5 593.2 376.5 593.2 376.5L641.5 400.1 646 414.3 624.5 438.8 610.3 435.7 580.1 391.4C579.6 390.1 577.3 389.8 576 390.3 574.2 391.4 573.9 393.6 574.9 395.4L600.6 434.1 578.1 429.7 566.6 412.7C565.5 411 563.7 410.2 562.4 411.6 560.7 412.7 560.4 414.9 560.9 416.3L568.9 427.5 552.3 424.1C550.5 424.2 548.8 425.2 548 427.1 548.1 428 548.6 429.3 549.6 430.2 550.1 430.6 550.1 430.6 551 430.5L567.5 434 556.2 442C554.5 443 554.6 444.8 555.2 446.1 555.6 446.6 555.6 446.6 556.1 447 557.1 447.8 558.5 448.2 559.8 447.6L576.7 436.1 599.2 440.5 560.6 466.2C559.3 467.6 558.5 469.5 560 470.8 560 471.7 560 471.7 560.5 472.1 561.5 472.9 563.3 472.8 564.6 472.3L608.9 442.1 623.1 445.3 633.8 475.9 624.1 486.9 570.8 490.5C569 490.6 567.3 492.5 567.4 494.3S569.5 497.8 571.3 497.7L617.7 494.2 602.6 511.5 582.3 513.3C580.5 513.4 579.2 514.8 579.3 516.6 579.4 518.5 580.9 519.7 582.7 519.6L596.2 518.7 584.8 531.7C584 532.7 583.7 535 585.1 536.2 586.6 537.5 589.3 537.3 590.1 536.3L601.5 523.3 602.4 536.9C602.5 537.8 602.5 538.7 603 539.1 604 540 604.9 539.9 605.8 539.8 607.6 539.7 608.9 538.3 608.7 536.5L607.8 516.1 623 498.8 625.6 545.3C625.7 546.2 626.2 546.7 627.1 547.5 627.6 547.9 628.1 548.4 629 548.3 630.8 548.2 632.5 546.3 632.4 544.4L629.4 491.6 639.1 480.5 670.3 486.6 675.8 500.8 651.7 548.6C651.4 550 651.5 551.8 652.4 552.6 652.9 553.1 652.9 553.1 653.3 552.6 654.8 553.9 657 553.3 657.8 551.4L678.2 509.7 686 531.8 676.8 550.1C676.4 551.5 676.9 552.8 677.9 553.7 677.9 553.7 678.4 554.1 678.4 554.1 679.8 555.4 682.1 554.8 682.8 552.9L688.8 540.3 694.4 556.2C694.5 557.1 694.9 557.6 695.4 558 696.4 558.8 697.8 559.2 698.2 558.7 700.4 558.1 701.2 556.2 701.1 554.4L695.5 538.5 707.2 544.5C709.1 545.3 711.3 544.7 712.1 542.8 712.5 541.4 711.9 539.2 710.5 538.8L692.2 529.6 684.9 507.9 726.6 528.3C728.4 529 730.2 528 731.4 526.6 731.8 525.2 731.2 523 729.3 522.2ZM690.7 458.5L674.2 477.3 671.7 480.2 668 479.5 644.1 474.7 640 473.6 638.8 470.1 631 447 629.8 443.5 632.3 440.6 648.8 421.8 651.3 418.9 655 419.6 678.9 424.4 682.6 425 684.2 429 692.1 452.1 693.2 455.6 690.7 458.5Z" fill="rgba(51, 121, 194, 0.58)"></path><path d="M1139.5 369.3L1165.8 323.1 1211.5 310.9 1199.3 356.6 1153.1 382.8C1153.1 382.8 1152.7 383.3 1152.7 383.3 1151.8 384.2 1151.8 386 1152.2 387.4 1153.1 389.2 1155.4 389.6 1156.7 388.3L1197 365.2 1191.1 387.4 1173.5 397.8C1173.5 397.8 1173 398.2 1173 398.2 1172.1 399.1 1172.1 400.9 1172.6 402.3 1173.5 404.1 1175.7 404.6 1177.1 403.2L1189.3 396.4 1184.8 412.7C1184.3 414.1 1185.7 416.3 1187 416.8 1188.9 417.7 1190.7 415.9 1191.1 414.5L1195.6 398.2 1202.4 410.4C1203.3 412.2 1205.6 412.7 1207 411.3 1208.8 410.4 1209.2 408.2 1207.9 406.8L1197.5 389.2 1203.8 367.4 1226.9 407.7C1227.8 409.5 1230 410 1231.4 408.6 1233.2 407.7 1233.7 405.5 1232.3 404.1L1206.1 357.9 1218.3 312.2 1252.2 346.2 1252.2 399.6C1252.2 401.4 1253.6 402.7 1255.4 402.7 1257.2 402.7 1258.6 401.4 1258.6 399.6L1258.6 352.5 1274.8 368.8 1274.8 388.7C1274.8 390.5 1276.2 391.9 1278 391.9 1279.8 391.9 1281.2 390.5 1281.2 388.7L1281.2 375.1 1293.9 387.8C1294.8 389.6 1297 389.2 1298.4 387.8 1299.7 386.5 1299.7 384.6 1298.4 383.3L1286.6 371.5 1300.2 371.5C1302 371.5 1303.4 370.2 1303.4 368.3S1302 365.2 1300.2 365.2L1280.3 365.2 1264 348.9 1311 348.9C1312.9 348.9 1314.2 347.5 1314.2 345.7 1314.2 343.9 1312.9 342.6 1311 342.6L1257.6 342.6 1224.2 309.1 1269.9 296.8 1314.7 322.6C1316.5 323.5 1318.3 322.6 1319.6 321.3 1320.6 319.5 1319.6 317.7 1318.3 316.3L1278 293.2 1300.2 287.3 1317.8 297.8C1319.6 298.7 1321.5 297.8 1322.8 296.4 1323.7 294.6 1322.8 292.8 1321.9 291.9L1309.7 285.1 1326 280.6C1327.3 280.1 1329.1 278.3 1328.2 276.5 1327.3 274.7 1326 273.3 1324.2 274.2L1307.9 278.7 1314.7 266.5C1315.6 264.7 1314.7 262.9 1313.8 262 1312.4 261.5 1310.6 261.5 1309.7 262.5 1309.7 262.5 1309.2 262.9 1309.2 262.9L1298.8 280.6 1276.7 286.4 1299.7 246.2C1300.6 244.4 1299.7 242.5 1298.8 241.6 1297.5 241.2 1295.7 241.2 1294.8 242.1 1294.8 242.1 1294.3 242.5 1294.3 242.5L1268.1 288.7 1222.3 300.9 1234.6 255.2 1280.7 229C1282.5 228.1 1283 225.8 1281.6 224.4 1280.7 222.6 1278.5 222.2 1277.1 223.5L1236.8 246.6 1242.7 224.4 1260.4 214C1262.2 213.1 1262.6 210.9 1261.3 209.5 1260.4 207.7 1258.1 207.2 1256.7 208.6L1244.5 215.4 1249 199.1C1249.5 197.7 1248.1 195.5 1246.8 195 1245.4 194.6 1244.1 195 1243.2 195.9 1242.7 196.4 1242.3 196.8 1242.3 197.7L1237.7 214 1230.9 201.8C1230 200 1227.8 199.5 1226.4 200.9 1226.4 200.9 1226 201.4 1226 201.4 1225.1 202.3 1225.1 204.1 1225.5 205.4L1235.9 223.1 1230 245.3 1207 205C1206.1 203.2 1203.8 202.7 1202.4 204.1 1202.4 204.1 1202 204.5 1202 204.5 1201.1 205.4 1201.1 207.2 1201.5 208.6L1227.8 254.8 1215.6 300.5 1182.1 267 1182.1 213.6C1182.1 211.8 1180.7 210.4 1178.9 210.4 1177.1 210.4 1175.7 211.8 1175.7 213.6L1175.3 260.2 1159 243.9 1159 224C1159 222.2 1157.6 220.8 1155.8 220.8S1152.7 222.2 1152.7 224L1152.7 237.6 1140.9 225.8C1139.5 224.4 1137.7 224.4 1136.4 225.8 1135 227.2 1135 229 1136.4 230.3L1148.1 242.1 1134.6 242.1C1133.6 242.1 1132.7 242.1 1131.8 243S1130.9 244.8 1130.9 245.7C1130.9 247.5 1132.3 248.9 1134.1 248.9L1154 248.9 1170.3 265.2 1123.2 265.2C1122.3 265.2 1121.4 265.2 1120.5 266.1 1120.1 266.5 1119.6 267.9 1119.6 268.8 1119.6 270.6 1121 272 1122.8 272L1176.2 272 1209.7 305.4 1164 317.7 1117.8 291.4C1116.5 291 1114.6 291 1113.7 291.9 1113.7 291.9 1113.3 292.3 1113.3 292.3 1112.4 294.1 1113.3 295.9 1114.2 296.8L1154.5 319.9 1132.3 325.8 1114.6 315.4C1113.3 314.9 1111.5 314.9 1110.6 315.9 1110.6 315.9 1110.1 316.3 1110.1 316.3 1109.2 318.1 1110.1 319.9 1111 320.8L1123.2 327.6 1106.9 332.1C1106.5 332.6 1105.6 332.6 1105.1 333.1 1104.2 334 1103.8 335.3 1104.2 336.7 1105.1 338.5 1106.5 339.8 1108.3 338.9L1124.6 334.4 1117.8 346.6C1116.9 348.4 1117.8 350.2 1118.7 351.2 1120.5 352.1 1122.3 351.2 1123.2 350.2L1133.6 332.6 1155.8 326.7 1132.7 367C1131.8 368.8 1132.7 370.6 1133.6 371.5 1136.4 371.5 1138.6 371.1 1139.5 369.3Z" fill="rgba(51, 121, 194, 0.58)"></path><path d="M936.4 362.7L909 325.3 910.7 312.6 937.3 302.2 947.6 310.1 952.5 356.3C952.7 356.9 952.7 356.9 952.9 357.4 953.3 358.4 954.3 359.3 956 359.2 957.6 358.6 958.4 357.6 958.4 355.9L953.9 315.5 969.7 328 971.8 345.8C971.8 345.8 972 346.3 972 346.3 972.4 347.3 973.4 348.2 975.1 348.1 976.4 348.2 977.5 346.5 977.5 344.7L976.5 333.1 988 342.4C988.9 343.3 990.7 343.2 992 342S992.6 338.8 991.4 337.4L980.1 328.6 991.6 327.2C993.4 327.1 994.5 325.4 994.4 323.6 994 322.6 992.9 321.2 991.1 321.3L973.3 323.5 957.4 310.5 997.8 306.1C999.5 306 1000.7 304.3 1000.8 303.1 1000.2 301.5 999 300.2 997.3 300.3L951.3 305.7 940.7 297.2 944.9 269.7 957.5 264.8 1000.1 282.9C1001.5 283.5 1003.1 282.9 1003.7 281.5S1003.8 278.5 1002.3 277.8L964.8 261.9 984 254.3 1000 261.3C1001.5 261.9 1003 261.3 1004.2 259.6S1004.2 256.6 1002.7 256L991.3 251.4 1005.4 245.9C1007 245.3 1007.4 243.3 1006.8 241.8 1006.2 240.2 1004.7 239.6 1003.2 240.2L989.1 245.7 993.8 234.8C995 233.2 994.4 231.6 992.4 231.2 990.9 230.5 989.4 231.2 988.7 232.6L981.8 248.6 962.5 256.2 979.2 218.9C979.8 217.5 979 215.4 977.5 214.8S974.5 214.7 973.9 216.2L955.2 259 942.7 263.9 920.7 246.1 922.8 233.2 960.2 205.9C961.6 204.8 961.5 203 960.9 201.4 959.7 200.1 958 200.2 956.4 200.8L923.8 225 926.8 205.2 941.4 194.7C942.7 193.5 942.6 191.8 942 190.2 941.1 189.4 939.1 188.9 937.7 190.1L928.3 196.8 930.4 182.1C930.5 180.9 929.4 179.5 927.9 178.9 926.2 179 924.8 180.1 924.7 181.4L922.6 196 915.2 186.3C914.3 185.5 912.3 185 911.5 186 909.9 186.6 909.8 187.8 910.4 189.4 910.4 189.4 910.6 189.9 910.6 189.9L921.1 204.4 918.1 224.3 893.8 191.7C892.7 190.3 891.3 189.7 889.9 190.8 888.5 192 888.4 193.2 888.8 194.2 889 194.8 889 194.8 889 194.8L917.1 232.5 914.9 245.4 888.4 255.8 878.5 247.6 872.9 201.1C873 199.9 871.3 198.7 870.1 198.6 868.3 198.7 867.2 200.4 867.3 202.1L871.7 242.5 856 230 853.8 212.2C853.7 210.5 852.6 209.1 851 209.7 849.2 209.8 848.1 211.5 848 212.7L849.7 224.7 838.2 215.4C836.7 214.7 834.9 214.8 833.6 216 833.3 216.7 833.2 217.9 833.6 219 833.8 219.5 833.8 219.5 834.5 219.8L846 229.1 834 230.8C832.2 230.9 831.6 232.4 831.5 233.6 831.7 234.1 831.7 234.1 831.9 234.7 832.3 235.7 833.3 236.5 834.5 236.7L852.3 234.5 868 246.9 827.7 251.4C826.1 252 824.7 253.1 825.3 254.7 825 255.4 825 255.4 825.2 255.9 825.6 257 827.1 257.6 828.3 257.7L874.9 252.1 884.7 260.3 880.7 288.3 868.7 293 825.8 274.3C824.4 273.7 822.3 274.5 821.7 276S821.9 279.5 823.3 280.2L860.9 296.1 842.1 303.5 825.6 296.7C824.2 296.1 822.6 296.7 822 298.1 821.3 299.6 821.9 301.2 823.4 301.8L834.3 306.5 820.2 312.1C819.2 312.5 818 314.1 818.6 315.7 819.2 317.3 821.4 318.2 822.5 317.8L836.5 312.3 831.8 323.2C831.5 323.9 831.2 324.6 831.4 325.1 831.8 326.2 832.5 326.5 833.2 326.8 834.7 327.4 836.2 326.8 836.9 325.4L844.4 309.2 863.1 301.8 846.5 339.1C846.1 339.8 846.3 340.3 846.8 341.3 847 341.9 847.2 342.4 847.9 342.7 849.3 343.3 851.4 342.5 852.1 341.1L870.9 298.8 882.9 294 904.8 311.3 903.3 324.5 865.4 352.1C864.6 353 863.9 354.4 864.3 355.5 864.6 356 864.6 356 865.1 355.8 865.7 357.4 867.7 357.8 869 356.7L901.6 332.4 898.8 352.8 884.3 363.3C883.4 364.2 883.3 365.5 883.7 366.5 883.7 366.5 883.9 367 883.9 367 884.5 368.6 886.5 369 887.9 367.9L897.6 360.5 895.5 375.1C895.2 375.9 895.4 376.4 895.6 376.9 896 377.9 897 378.8 897.5 378.6 899.5 379 900.8 377.9 901.4 376.4L903.5 361.8 910.2 371.2C911.3 372.5 913.3 372.9 914.7 371.8 915.5 370.9 915.9 368.9 915 368.1L904.5 353.6 907.5 333.7 931.8 366.3C932.9 367.7 934.7 367.6 936.2 367 937.1 366 937.5 364.1 936.4 362.7ZM931.9 297.7L911.6 305.7 908.4 306.9 905.8 304.9 889.2 291.6 886.4 289.1 886.9 285.9 890.1 264.8 890.6 261.5 893.7 260.3 914.1 252.3 917.2 251.1 919.8 253.1 936.4 266.4 939 268.4 938.7 272.1 935.5 293.2 935 296.4 931.9 297.7Z" fill="rgba(51, 121, 194, 0.58)"></path><path d="M426.6 91.3L437.8 97.1 430.9 101.9C430.1 102.4 429.8 103.6 430.2 104.7 431.1 105.5 432.3 105.8 433.1 105.4L442.3 99.2 452.7 104.6 433.8 117C432.7 117.8 432.3 119 433.2 119.8 433.6 121 434.9 121.3 436 120.4L456.8 106.7 466.3 111.3 467.8 135.7 460.1 141 436.5 128.8C436.1 128.8 435.7 128.9 435.3 128.9 434.9 128.9 434.2 129.4 433.8 129.8 433.1 131 433.5 132.2 434.8 132.5L456.3 143.6 446.7 149.8 435.5 144.5C435.5 144.1 435.1 144.1 434.7 144.1 433.9 144.2 433.1 144.6 432.8 145.5 432.4 146.3 432.9 147.5 433.7 148.2L442.8 152.5 430.9 160.4C430.1 160.9 429.8 162.1 430.3 163.3 431.1 164 432.3 164.3 433.1 163.9L444.3 156.4 444.8 164.8C444.8 166 446.1 166.7 446.9 166.6 448.1 166.6 449.2 165.7 449.2 164.5L448.5 153.7 458.1 147.5 459.5 169.9C459.6 171.1 460.4 171.8 461.6 171.7 462.8 171.7 463.6 170.8 463.5 169.6L462 144.9 470 139.2 492 150.2 492.5 159.4 471.4 173.5C470.2 174 469.9 175.6 470.7 176.4 471.2 177.6 472.4 177.5 473.6 177L492.8 164.2 493.5 175.8 483.9 182C483.1 182.4 482.8 184.1 483.3 184.8S485.4 185.9 486.5 185.4L493.8 180.6 494.7 194.5C494.8 195.7 496 196.5 497.2 196.4 498 196.3 499.2 195.5 499.1 194.3L498.2 180.3 506.5 184.2C507.3 184.5 508.5 184.5 509.2 183.2 509.6 182.4 509.1 180.8 508.3 180.5L497.9 175.5 497.2 163.9 517.9 174.3C519.1 174.6 520.3 174.5 521 173.3 521.4 172.4 520.9 170.9 520.1 170.5L496.9 159.1 496.4 150 516.8 136.3 525.5 140.9 527 165.7C527.1 166.9 527.9 167.6 529.1 167.6 530.3 167.5 531.5 166.6 531.4 165.4L530 143.1 540.3 148 541 158.8C541.1 160 541.9 160.8 543.1 160.7 544.3 160.6 545.1 159.8 545 158.6L544.5 150.2 556.5 156.3C557.3 156.6 558.9 156.1 559.2 155.3 559.5 154.1 559.5 152.9 558.2 152.5L545.8 146.1 553.9 140.8C554.6 139.9 555 138.7 554.5 137.9 554.1 137.2 553.3 136.8 552.5 136.9 552.5 136.9 552.1 136.9 551.7 137.3L541.3 144 530.9 139 550.9 125.3C552.1 124.9 552.4 123.6 551.6 122.5 551.1 122.1 550.7 121.7 549.9 121.8 549.5 121.8 549.1 121.8 548.7 121.9L526.8 136.8 518.5 132.5 517 108.2 525.9 102.4 548.2 113.5C549.5 114.2 550.6 113.7 550.9 112.5 551.7 111.7 551.2 110.5 550 109.8L529.7 99.8 539.3 93.2 549.3 98.2C550.1 98.5 551.3 98.1 552 97.2 552.3 96 552.3 94.8 551 94.5L543.6 90.5 554 83.5C555.1 83 555.1 81.8 554.6 80.6 554.2 80.2 553.3 79.9 552.5 79.9 552.5 79.9 552.1 80 551.7 80L540.6 87.5 540 77.5C539.9 76.7 539 75.6 537.8 75.6 536.6 75.7 535.9 77 536 77.8L536.7 90.1 527.1 96.8 525.6 72.4C525.5 71.2 524.3 70.5 523.1 70.5S521.2 71.5 521.2 72.7L522.9 99.4 514.8 104.7 492.9 93.7 492.2 83.3 513.8 69.1C514.5 68.3 514.9 67.1 514.4 65.9 514 65.5 513.2 65.2 512.4 65.2 512 65.2 511.6 65.3 511.2 65.7L491.9 78.5 491.2 66.9 500.8 60.3C501.6 59.9 501.9 58.6 501.5 57.5 500.6 56.7 499.4 56.4 498.6 56.8L490.9 62.1 490.1 49.3C490.1 48.5 488.8 47.4 488 47.5 486.8 47.5 485.7 48.8 485.7 49.6L486.5 62.4 478.6 58.1C478.3 58.1 477.9 58.1 477.5 58.1 476.7 58.2 475.9 58.6 475.5 59.1 475.2 60.3 475.7 61.5 476.5 62.2L486.8 67.2 487.5 78.8 466.9 68.4C465.6 67.7 464.4 68.2 464.1 69 463.4 70.2 463.8 71.4 464.7 72.2L487.8 83.6 488.5 93.9 468.1 107.6 459.4 103.3 457.8 76.6C457.7 75.4 456.8 74.6 455.6 74.7 454.4 74.8 453.7 75.6 453.8 76.8L455.3 101.2 444.9 95.8 444.2 83.4C444.1 82.6 442.8 81.5 441.6 81.6 440.4 81.7 439.7 82.9 439.8 83.7L440.4 93.7 428.4 87.6C428 87.7 428 87.7 427.6 87.7 426.8 87.7 426 88.2 425.6 88.6 425.3 89.8 425.8 91 426.6 91.3ZM488.8 98.7L491.1 97.4 493.2 98.5 511 107.4 513 108.4 513.2 110.8 514.4 130.4 514.5 132.8 512.6 134.1 496.1 145.2 494.1 146.5 491.7 145.4 474.3 136.5 471.8 135.4 471.7 133 470.5 113.5 470.3 111.1 472.6 109.7 488.8 98.7Z" fill="rgba(51, 121, 194, 0.58)"></path><path d="M109.3 376.1L150.4 393.5 156.2 408.8 142.4 402.8C141 401.8 139.6 402.8 138.5 404.1 138.3 405.3 138.9 407.2 140.1 407.5L159.1 416 165.3 430.8 149.4 428.3 137 411.4C137 411.4 136.6 411.1 136.6 411.1 135.7 410.4 134.1 410.6 133 411.1 132 412.5 131.7 413.7 132.7 415.2L141.7 427.2 125.8 424.7 98.9 389.3C98.9 389.3 98.8 388.5 98.8 388.5 97.9 387.8 96.3 388 95.2 388.5 93.7 389.5 93.6 391.5 94.9 392.6L118.1 423.7 98.7 421.2 88.3 407.3C88.3 407.3 88.3 407.3 87.8 407 86.9 406.3 85.7 406 84.6 406.5 83.6 407.9 83 409.5 83.9 411L91 420.1 76.8 418.2C75.1 417.6 74.1 419 73.9 420.2 73.3 421.9 74.2 423.3 76.2 423.5L90.1 425.8 80.9 432.1C79.8 433.4 79.2 435.1 80.5 436.1 81.5 437.6 82.7 437.9 84.2 436.9L98.1 426.5 117.2 429.4 85.8 453.1C84.6 453.6 84.5 455.6 85.4 457.1 86.3 457.8 88 458.4 89.5 457.4L124.9 430.4 140.8 432.9 128.7 442C127.2 442.9 127.4 444.5 128.4 446 128.9 447.1 130.9 447.3 132.1 446.7L148.5 434 164.7 436.1 154.6 448.8 134.2 451.3C132.6 451.5 131.6 452.8 131.8 454.3 131.5 455.6 133.3 457 134.9 456.8L149.8 455 139.8 467.7 95.3 472.7C93.7 472.9 92.7 474.2 92.9 475.7 93 477.3 94.4 478.4 95.9 478.2L134.9 473.9 123.1 488.9 105.8 490.9C104.3 491.1 103.2 492.5 103.4 494 103.6 495.6 104.9 496.6 106.5 496.4L117.9 495.5 109.3 506.5C108.2 507.8 108.4 509.4 109.8 510.4 111.1 511.5 112.6 511.3 113.7 509.9L122.3 498.9 123.7 510C123.8 511.5 125.2 512.6 126.7 512.4S129.3 510.9 129.2 509.3L127.2 492.8 139.3 477.4 143.9 515.9C144.1 517.5 145.4 518.5 147 518.3 148.6 518.1 149.6 516.8 149.4 515.2L144.2 471.2 154.2 458.4 156 473.4C156.2 475 157.5 476 159.1 475.8 160.6 475.6 161.7 474.3 161.5 472.7L159 452.3 168.7 440 174.5 454.4 166.4 473.7C166.1 475 166.8 476.9 168 477.1 169.7 477.7 170.8 477.2 171.8 475.9L177.8 462 183.5 476.5 166.1 517.6C165.5 519.3 166 520.4 167.3 521.5 169 522.1 170.5 521.1 171.1 520.2L186.8 484.1 193.7 502.4 187.2 517.9C186.2 519.2 187.2 520.7 188.5 521.8 189.7 522 191.6 521.4 192.2 519.7L196.6 509.6 202.1 522.5C202.3 524.1 204 524.7 205.9 524.1 207 523.5 207.6 521.9 207.1 520.7L201.9 507.4 212.4 512.1C214.1 512.7 215.6 511.7 215.8 510.5 216.9 509.2 216.3 508.1 215.5 507.4 215 507 215 507 214.6 506.7L199.1 500.1 192.1 481.8 227.8 497.1C229.1 498.2 230.6 497.2 231.6 495.9 231.9 494.6 231.4 493.5 230.5 492.8 230 492.5 230 492.5 230 492.5L188.8 474.3 183.1 459.8 196.9 465.7C198.6 466.3 199.7 465.8 200.8 464.5 201 463.2 200.8 461.7 200 461 199.5 460.6 199.5 460.6 199.1 460.3L179.8 452.2 174.1 437.7 189.5 439.9 202.2 456.3C203.2 457.8 205.2 457.9 206.3 457.4 207.4 456.1 208 454.4 206.6 453.4L197.6 441.3 213.4 443 240.4 479.3C241 480.4 243 480.5 244.1 480 245.1 478.7 245.7 477 244.8 475.5L221.5 444.4 240.6 447.3 250.6 460.9C251.6 462.4 253.6 462.5 254.6 461.2 255.8 460.7 256.4 459 255.4 457.5L248.3 448.4 262.5 450.3C263.7 450.6 265.2 449.6 265.8 447.9 265.7 447.1 265.2 446 264.3 445.3 264.3 445.3 263.8 445 263.4 444.6L249.2 442.7 258.3 435.6C259.5 435.1 259.6 433.1 259.1 432 258.7 431.6 258.7 431.6 258.7 431.6 257.3 430.6 255.8 430.8 255.1 431.6L241.5 441.6 222.1 439.2 253.5 415.5C254.6 414.2 254.8 412.9 253.9 411.5 253.9 411.5 253.4 411.1 253.4 411.1 252.5 410.4 251.3 410.2 249.8 411.1L213.9 437.8 198.5 435.6 210.6 426.6C211.6 425.3 212.2 423.6 210.9 422.6 211.3 422.1 210.8 421.8 210.8 421.8 210 421.1 208.4 421.3 207.2 421.8L190.8 434.5 175 432 184.7 419.7 205.1 417.3C206.7 417.1 208.1 415.3 207.9 413.8 207.3 412.6 206 411.6 204.8 411.3L189.5 413.6 199.6 400.8 243.6 395.5C245.2 395.3 246.2 394 246 392.4 245.8 390.9 244.5 389.8 242.9 390L204.4 394.6 216.5 379.2 233 377.3C234.6 377.1 235.6 375.7 235.5 374.2S233.9 371.6 232.4 371.7L221.4 373.1 230 362.1C231.1 360.7 230.9 359.2 229.6 358.1 228.2 357.1 226.7 357.3 225.6 358.6L217 369.6 215.2 358.2C215.1 357.5 215 356.7 214.6 356.3 214.1 356 212.9 355.7 212.1 355.8 210.6 356 209.5 357.3 209.7 358.9L212.1 375.8 200 391.2 195 352.3C194.9 351.5 194.8 350.7 194.3 350.4 193.9 350 192.7 349.8 191.9 349.9 190.3 350.1 189.3 351.4 189.5 352.9L195.2 397.3 185.1 410.1 183.7 394.7C183.6 393.9 182.7 393.2 182.3 392.9 181.8 392.5 181.4 392.2 180.6 392.3 179 392.5 177.6 394.2 178.2 395.4L180.3 416.3 170.6 428.6 164.4 413.8 172.9 394.8C173.2 393.6 173 392 172.1 391.3 171.7 391 171.7 391 171.3 391.4 170 390.4 168.1 391 167.5 392.7L161.6 406.5 155.4 391.7 173.6 350.5C173.9 349.2 173.3 348.1 172.4 347.4 172 347.1 172 347.1 172 347.1 170.3 346.5 168.8 346.6 168.2 348.3L152.5 384.5 145.6 366.2 152.1 350.6C152.7 349 152.2 347.8 151.3 347.1 151.3 347.1 150.8 346.8 150.8 346.8 149.2 346.2 147.7 347.2 147 348L142.7 358.9 137.5 345.6C137.1 345.2 136.6 344.9 136.2 344.5 135.8 344.2 134.5 343.9 133.8 344 132.3 345 131.2 346.3 132.2 347.8L137.4 361.2 126.9 356.4C125.2 355.8 123.7 356.8 123 357.7 122.4 359.4 123.4 360.8 124.7 361.9L140.3 368.4 147.6 386.3 111.8 371C110.2 370.4 108.3 371 108 372.2 107.4 373.9 107.6 375.5 109.3 376.1Z" fill="rgba(51, 121, 194, 0.58)"></path><path d="M1126.3 473.1L1119.2 480.2 1117.2 473.8C1117.1 473.1 1116.2 472.5 1115.2 472.6 1114.5 473.1 1113.9 473.9 1114.1 474.6L1116.5 483.2 1109.9 489.7 1105.1 472.3C1104.7 471.3 1103.8 470.7 1103.1 471.2 1102 471.2 1101.5 472.1 1101.9 473.2L1107.3 492.4 1101.4 498.5 1082.5 493.7 1080.3 486.6 1095.4 471.5C1095.4 471.2 1095.5 470.9 1095.6 470.6 1095.7 470.3 1095.5 469.6 1095.3 469.2 1094.5 468.4 1093.5 468.4 1093 469.3L1079.3 483 1076.9 474.1 1083.7 466.9C1084 467 1084.1 466.7 1084.1 466.4 1084.3 465.8 1084.1 465.1 1083.6 464.6 1083.1 464.1 1082 464.2 1081.3 464.7L1075.8 470.6 1072.7 459.5C1072.5 458.8 1071.7 458.3 1070.6 458.4 1069.9 458.8 1069.3 459.7 1069.5 460.4L1072.5 470.7 1066 469.1C1065 468.8 1064.2 469.6 1064 470.2 1063.8 471.1 1064.2 472.2 1065.1 472.5L1073.5 474.6 1075.9 483.4 1058.5 479C1057.6 478.8 1056.8 479.3 1056.5 480.2 1056.3 481.1 1056.8 481.9 1057.7 482.1L1076.9 487 1079.3 494.5 1065.5 508.6 1058.4 506.7 1052.8 487.2C1052.7 486.2 1051.6 485.5 1050.8 486 1049.8 486.1 1049.5 487 1049.6 488L1054.7 505.8 1045.7 503.5 1043.3 494.7C1043.2 494 1042 493.4 1041.3 493.5S1040 494.8 1040 495.8L1042 502.6 1031.1 499.8C1030.2 499.6 1029.3 500.4 1029.1 501.3 1028.9 501.9 1029.3 503 1030.2 503.3L1041.1 506 1036.1 511.3C1035.6 511.9 1035.4 512.8 1036.2 513.7 1036.7 514.1 1038 514.1 1038.5 513.6L1044.8 506.9 1053.8 509.2 1040.9 522.5C1040.3 523.3 1040.1 524.2 1040.9 525.1 1041.4 525.6 1042.7 525.6 1043.2 525L1057.5 510.2 1064.7 512 1070.1 530.8 1064.4 536.3 1045.2 531.5C1044.3 531.2 1043.5 531.7 1043.3 532.6 1043 533.6 1043.4 534.6 1044.4 534.9L1061.7 539.3 1055.4 545.9 1047 543.8C1046.1 543.6 1045.3 544 1045.1 545 1044.9 545.9 1045.3 546.7 1046.3 546.9L1052.8 548.6 1045.2 556.2C1044.8 556.8 1044.8 558.1 1045.3 558.6 1046.1 559.1 1047.1 559.3 1047.6 558.5L1055.6 550.6 1057.6 558C1058.1 558.8 1059 559.4 1059.7 559.2 1060.3 559.1 1060.8 558.5 1061 557.9 1061 557.9 1061.1 557.6 1060.8 557.2L1058.3 547.6 1064.6 541 1070.1 559.6C1070.2 560.6 1071.1 561.1 1072.1 560.7 1072.5 560.5 1072.9 560.3 1073.1 559.6 1073.2 559.3 1073.2 559 1073.3 558.7L1067.2 538.4 1072.5 533.1 1091.5 537.9 1093.7 546 1079.8 560.4C1079 561.1 1079 562.1 1079.9 562.7 1080.4 563.5 1081.4 563.4 1082.2 562.6L1094.8 549.6 1097.4 558.5 1091.2 564.9C1090.8 565.4 1090.8 566.4 1091.3 567.2 1092.1 567.8 1093.1 568 1093.6 567.2L1098.4 562.4 1101.3 572.1C1101.4 573.1 1102.3 573.3 1103.3 573.2 1103.7 573 1104.2 572.5 1104.3 571.8 1104.3 571.8 1104.4 571.5 1104.5 571.2L1101.5 560.9 1109.2 562.9C1109.9 563 1110.9 562.6 1111.2 561.7 1111.4 560.8 1110.6 559.9 1110 559.7L1100.4 557.3 1097.7 548.4 1116.6 553.2C1117.6 553.4 1118.4 552.6 1118.7 551.7S1118.4 550 1117.5 549.8L1096.7 544.5 1094.6 537 1108.4 523 1116.5 525.1 1122 545C1122.5 545.7 1123.3 546.3 1124.3 546.2 1124.7 546 1125.2 545.4 1125.4 544.8 1125.4 544.5 1125.5 544.2 1125.3 543.8L1120.2 526 1129.2 528.3 1131.9 537.2C1132 537.9 1132.9 538.5 1133.9 538.4 1134.7 537.9 1135.2 537.1 1135.1 536.4L1132.9 529.2 1142.9 531.7C1143.5 531.9 1144.6 531.2 1144.8 530.6 1145 529.7 1144.3 528.5 1143.7 528.3L1133.8 525.8 1139 520.9C1139.1 520.6 1139.2 520.3 1139.2 519.9 1139.4 519.3 1139.2 518.6 1139 518.2 1138.2 517.7 1137.1 517.8 1136.4 518.2L1130.1 524.9 1121.1 522.6 1134 509.4C1134.8 508.6 1134.8 507.6 1134.2 507.1 1133.5 506.3 1132.4 506.3 1131.7 506.8L1117.3 521.7 1109.3 519.6 1103.8 500.7 1109.2 495.2 1130 500.4C1130.9 500.7 1131.7 500.2 1131.9 499.3 1132.2 498.3 1131.7 497.6 1130.8 497.3L1111.8 492.5 1118.5 486 1128.1 488.4C1128.7 488.6 1129.9 487.9 1130.1 486.9 1130.3 486 1129.6 485.1 1128.9 485L1121.2 483 1128.7 475.4C1128.8 475.1 1128.8 475.1 1128.9 474.7 1129 474.1 1128.9 473.4 1128.7 473 1127.8 472.5 1126.8 472.6 1126.3 473.1ZM1105.6 518.7L1106 520.8 1104.7 522.1 1093.6 533.5 1092.2 534.8 1090.4 534.3 1075.2 530.5 1073.3 530 1072.8 528.2 1068.4 512.9 1067.9 511.1 1069.3 509.5 1080.3 498.4 1081.7 496.8 1083.6 497.3 1098.8 501.1 1100.6 501.6 1101.1 503.7 1105.6 518.7Z" fill="rgba(51, 121, 194, 0.58)"></path><path d="M88.6 112.3L96.1 120.6 89.6 122.3C88.9 122.5 88.3 123.3 88.3 124.3 88.8 125.1 89.6 125.7 90.4 125.3L98.6 123.4 104.8 129.6 87.6 133.4C86.8 133.8 86.2 134.7 86.3 135.4 86.6 136.5 87.5 137.1 88.3 136.6L107.3 132.4 116.3 142.2 101.1 143.9 112.8 153.8 99.8 156.9 86.4 142.8C86.5 142.5 86.2 142.4 85.9 142.3 85.3 142.1 84.6 142.2 84.1 142.7 83.6 143.2 83.6 144.3 84 145.1L96.2 157.8 87.6 159.5 81.8 153.4C81.6 153 81.3 152.9 81 152.8 80.7 152.7 80 152.8 79.5 153.4 79 153.9 79 154.9 79.5 155.4L84 160.4 73.1 163.1C72.1 163.2 71.9 164.1 71.9 165.1 72 165.8 72.8 166.4 73.9 166.1L84.7 163.7 82.7 170.1C82.5 171 83.2 171.9 83.8 172.1 84.7 172.4 85.5 171.9 85.8 171L88.3 162.8 96.9 161 91.8 177.5C91.6 178.5 92 179.3 92.9 179.5 93.5 179.7 94.6 179.4 94.9 178.5L100.5 160.1 113.5 157.1 107.6 171 121.8 165.9 117.9 178.8 99.2 183.1C98.1 183.5 97.8 184.4 97.9 185.1 98 185.8 98.8 186.4 99.9 186.4L116.9 182.2 114.3 190.4 106 192.6C105 192.6 104.4 193.4 104.7 194.5 104.8 195.2 105.7 195.8 106.8 195.5L113.2 194.1 109.9 204.8C109.7 205.7 110.1 206.5 111 206.8S112.7 206.7 113 205.8L116.3 195 120.8 199.8C121.6 200.7 122.6 200.7 123.1 200.1 124 199.4 123.9 198.4 123.1 197.8L117.4 191.4 119.9 183.1 131.7 196.1C132.5 196.7 133.5 196.6 134 196.1 134.9 195.4 134.9 194.4 134.1 193.8L120.9 179.7 124.9 166.9 133.9 179 136.7 164.2 145.8 173.9 140.2 192.3C139.9 193.2 140.6 194.1 141.3 194.3 142.2 194.6 143 194.2 143.3 193.2L148.4 176.4 154.4 182.9 151.9 191.2C151.6 192.1 152.1 192.9 153 193.2 153.6 193.4 154.7 193 155 192.1L156.9 185.7 164.5 193.7C165.3 194.6 166.3 194.6 166.9 193.7 167.3 193.2 167.6 192.3 166.8 191.7L159.3 183.4 165.8 181.7C166.5 181.6 167.1 180.8 167 180.1 166.9 179.4 166.4 178.9 166.1 178.8 165.8 178.7 165.5 178.6 165.1 178.8L156.8 180.6 150.7 174.4 167.9 170.6C168.7 170.2 169.3 169.4 169.1 168.7 169 168 168.5 167.5 167.9 167.3 167.6 167.2 167.6 167.2 167.2 167.4L148.2 171.7 139.1 161.9 154.4 160.2 142.7 150.2 155.6 147.2 169.1 161.3C169.6 161.8 170.5 162.1 171.4 161.3 171.9 160.8 171.9 159.8 171.4 159L159.3 146.3 167.8 144.5 173.6 150.7C174.1 151.5 175.1 151.4 176 150.7 176.5 150.2 176.4 149.2 176 148.4L171.4 143.6 182.3 140.9C183.3 140.9 183.6 140 183.6 139 183.4 138.6 182.8 138.1 182.5 138 182.2 137.9 181.9 137.8 181.5 138L170.8 140.4 172.7 134C173 133.1 172.3 132.2 171.6 132L171.6 132C170.7 131.7 169.9 132.1 169.7 133L167.1 141.3 158.6 143 163.6 126.5C163.9 125.6 163.5 124.8 162.6 124.5S160.8 124.7 160.6 125.6L154.9 143.9 142 147 147.9 133.1 133.6 138.1 137.6 125.3 156.3 120.9C157.4 120.6 157.7 119.7 157.6 119 157.4 118.3 156.6 117.7 155.6 117.7L138.7 121.6 141.1 113.6 149.5 111.5C150.5 111.5 151.1 110.6 150.7 109.5 150.6 108.8 149.8 108.2 148.8 108.3L142.2 110 145.5 99.2C145.8 98.3 145.4 97.5 144.4 97.2S142.7 97.4 142.4 98.3L139.2 109 134.6 104.3C134.4 103.9 134.1 103.8 133.8 103.7 133.2 103.5 132.8 103.7 132.4 103.9 131.5 104.7 131.5 105.7 132.3 106.3L138.1 112.7 135.5 121 123.8 108C123.5 107.9 123.2 107.8 122.8 107.7 122.2 107.5 121.8 107.7 121.4 108 120.5 108.7 120.6 109.7 121.4 110.3L134.5 124.3 130.6 137.2 121.6 125.1 118.7 139.9 109.7 130.1 115.3 111.8C115.5 110.8 114.8 109.9 114.2 109.8 113.3 109.5 112.5 109.9 112.2 110.8L107.2 127.4 101 121.1 103.5 112.9C103.8 112 103.4 111.2 102.5 110.9S100.8 111 100.5 111.9L98.5 118.4 90.9 110.4C90.7 110 90.4 109.9 90.1 109.8 89.8 109.7 89.1 109.8 88.6 110.3 88.1 110.8 87.8 111.8 88.6 112.3ZM123.3 132.6L130.6 142.5 142.3 138.4 137.4 150 146.7 157.8 134.5 159.5 132.2 171.5 124.8 161.5 113.2 165.7 118 154.4 108.7 146.2 120.9 144.9 123.3 132.6Z" fill="rgba(51, 121, 194, 0.58)"></path><path d="M1337 156.7L1343.5 131 1349.6 127.1 1363.9 135 1364.2 142.5 1345.6 161.5C1345.5 161.7 1345.5 161.7 1345.3 162 1345 162.6 1345 163.3 1345.7 164 1346.5 164.5 1347.2 164.5 1348 163.9L1364.1 147.2 1364.4 158.7 1357.3 166.1C1357.3 166.1 1357.2 166.4 1357.2 166.4 1356.9 166.9 1356.8 167.7 1357.5 168.4 1357.9 169 1359.1 168.9 1359.8 168.2L1364.6 163.5 1364.7 172C1364.6 172.7 1365.3 173.5 1366.3 173.6S1367.9 172.7 1368.1 171.7L1367.9 163.5 1372.7 168C1373.4 168.8 1374.6 168.7 1375.3 168 1375.6 167.4 1375.8 166.4 1375.1 165.7L1367.7 158.7 1367.6 146.9 1384.2 163.1C1384.9 163.8 1386.1 163.7 1386.7 163.3 1387.1 162.5 1387.3 161.5 1386.6 160.7L1367.5 142.5 1367.4 134.7 1381 126.5 1387.7 130.3 1395.3 155.6C1395.5 156.5 1396.4 157 1397.2 156.7S1398.6 155.6 1398.3 154.8L1391.7 132.4 1402 138.2 1404.8 147.7C1405 148.6 1405.9 149.1 1407 149S1408.4 147.9 1408.1 147L1405.9 140.3 1413.5 144.5C1414.4 145 1415.4 144.4 1415.8 143.6 1416.3 142.8 1416.1 141.9 1415.2 141.4L1407.7 137.2 1414.2 135.4C1415.3 135.3 1415.8 134.4 1415.3 133.4 1415 132.5 1414.2 132.1 1413.3 132.3L1403.7 135.1 1393.4 129.3 1415.8 123.1C1416.7 122.9 1417.3 121.7 1417.1 120.9S1416 119.5 1415.1 119.8L1389.4 127.2 1382.7 123.5 1382.5 107.3 1389 103.5 1414.6 110C1415.6 110.2 1416.4 109.5 1416.9 108.7 1417 107.7 1416.3 106.9 1415.5 106.5L1393 101 1402.8 95.1 1412.7 97.6C1413.7 97.8 1414.5 97.1 1414.9 96.3 1415 95.6 1414.4 94.6 1413.4 94.4L1407.1 92.7 1414.3 88.2C1414.8 87.8 1415 86.8 1414.8 86 1414.1 85.2 1413.1 85 1412.5 85.4L1405.3 89.9 1406.9 83.1C1406.9 82.4 1406.4 81.3 1405.7 81.3 1404.8 80.8 1404.2 81.2 1403.8 82.1 1403.8 82.1 1403.6 82.4 1403.6 82.4L1401.1 92.3 1391.2 98.2 1396.7 75.6C1396.9 74.6 1396.7 73.8 1395.7 73.6 1394.7 73.4 1394.1 73.8 1393.8 74.4 1393.6 74.6 1393.6 74.6 1393.6 74.6L1387.2 100.7 1380.8 104.5 1366.5 96.6 1366.5 89.3 1384.9 69.8C1385.5 69.4 1385.4 68.3 1385 67.7 1384.3 67 1383.2 67.1 1382.4 67.7L1366.3 84.4 1366 72.9 1373.1 65.5C1373.8 64.8 1374 63.8 1373.2 63.3 1372.5 62.6 1371.3 62.7 1370.8 63.1L1366.1 68.2 1366 59.8C1365.8 58.9 1365.1 58.1 1364.1 58 1363.7 58.1 1363.1 58.5 1362.8 59 1362.6 59.3 1362.6 59.3 1362.7 59.8L1362.8 68.2 1357.7 63.6C1357 62.8 1356.1 63.1 1355.6 63.5 1355.4 63.8 1355.4 63.8 1355.2 64 1354.9 64.6 1354.9 65.3 1355.3 65.9L1362.8 72.9 1363 84.4 1346.3 68.3C1345.5 67.8 1344.5 67.6 1344 68.4 1343.6 68.6 1343.6 68.6 1343.4 68.8 1343.1 69.4 1343.4 70.3 1343.8 70.9L1363.2 89.3 1363.2 96.6 1349.4 105 1343 101.5 1335.6 75.8C1335.3 75 1334.2 74.3 1333.3 74.6S1331.8 76 1332.1 76.8L1338.8 99.2 1328.7 93.6 1325.6 83.9C1325.4 83 1324.5 82.5 1323.7 82.8 1322.8 83 1322.3 83.9 1322.6 84.7L1324.5 91.3 1316.9 87.1C1316.3 86.8 1315.2 86.9 1314.7 87.7 1314.3 88.6 1314.6 89.9 1315.2 90.2L1322.8 94.3 1316.2 96.2C1315.8 96.4 1315.4 96.5 1315.2 96.8 1314.9 97.3 1315 97.8 1315.2 98.2 1315.4 99.1 1316.3 99.5 1317.1 99.3L1327 96.7 1337.1 102.2 1314.6 108.5C1314.2 108.6 1314 108.9 1313.7 109.4 1313.5 109.7 1313.4 110 1313.5 110.4 1313.8 111.3 1314.9 111.9 1315.8 111.7L1341.3 104.6 1347.7 108.1 1348 124 1341.7 128.2 1315.8 121.6C1315.1 121.5 1314.2 121.8 1313.9 122.3 1313.7 122.6 1313.7 122.6 1314 122.8 1313.5 123.6 1314.1 124.6 1315.1 124.8L1337.6 130.3 1327.6 136.5 1317.7 134C1317 133.9 1316.4 134.3 1316.1 134.9 1316.1 134.9 1315.9 135.2 1315.9 135.2 1315.5 136 1316 137 1317 137.2L1323.8 138.8 1316.6 143.2C1316.2 143.3 1316 143.6 1315.9 143.9 1315.5 144.5 1315.5 145.2 1315.8 145.3 1316.3 146.4 1317.3 146.5 1318.2 146.3L1325.4 141.9 1323.7 148.2C1323.5 149.2 1324 150.3 1325 150.4 1325.7 150.5 1326.8 149.9 1326.8 149.2L1329.4 139.3 1339.2 133.4 1333.7 156C1333.5 157 1334.2 157.7 1335 158.2 1335.7 158.2 1336.8 157.7 1337 156.7ZM1363.9 131L1353 125 1351.3 124 1351.3 122.2 1351.1 110 1351.1 107.8 1352.8 106.9 1363.2 100.6 1364.8 99.7 1366.5 100.6 1377.4 106.6 1379.1 107.6 1379.2 109.4 1379.4 121.6 1379.4 123.5 1377.7 124.7 1367.2 131 1365.6 131.9 1363.9 131Z" fill="rgba(51, 121, 194, 0.58)"></path><path d="M420.3 297.2L398.2 311.8 391 310.6 385.8 295.1 390.6 289.4 417.1 287.8C417.4 287.7 417.4 287.7 417.7 287.6 418.3 287.4 418.8 286.9 418.8 285.9 418.5 285 418 284.5 417 284.5L393.8 286 401.4 277.3 411.6 276.5C411.6 276.5 411.9 276.4 411.9 276.4 412.5 276.2 413 275.7 413 274.7 413.1 274 412.2 273.3 411.2 273.3L404.5 273.5 410.1 267.2C410.6 266.7 410.6 265.7 410 264.9S408.2 264.5 407.4 265.1L402.1 271.3 401.5 264.8C401.5 263.7 400.6 263 399.6 263 399 263.3 398.2 263.9 398.2 264.9L398.9 275.1 391.1 283.8 389.6 260.7C389.6 259.7 388.7 259 388 258.9 387.1 259.2 386.3 259.8 386.3 260.8L388.2 287.2 383.1 293 367.4 289.8 365 282.6 376.5 258.7C376.9 257.9 376.6 257 375.8 256.6S374 256.5 373.6 257.3L363.5 278.3 359.7 267.1 364.1 258.2C364.5 257.4 364.2 256.5 363.3 255.8S361.6 255.7 361.2 256.5L358.3 262.9 355.5 254.7C355.2 253.8 354.1 253.5 353.2 253.8 352.3 254.1 351.9 254.9 352.2 255.8L355 264 348.9 261C348 260.3 347 260.6 346.7 261.7 346.3 262.5 346.7 263.4 347.5 263.8L356.4 268.3 360.2 279.5 339.4 269C338.6 268.6 337.4 269 337 269.8S336.9 271.5 337.7 271.9L361.6 283.7 364.1 291 353.4 303.1 346.1 301.5 331.5 279.4C330.9 278.6 329.8 278.6 328.9 278.9 328.1 279.5 328.1 280.6 328.4 281.5L341.4 300.7 330.2 298.5 324.5 289.9C323.9 289.1 322.9 289.1 322 289.4 321.5 289.9 321.2 291 321.8 291.8L325.4 297.4 317.1 295.8C316.4 295.7 315.6 296.3 315.2 297.1 315.2 298.1 315.8 298.9 316.5 299L324.8 300.6 319.1 304.6C318.6 305.1 318.3 306.2 318.8 306.7 319.1 307.6 319.8 307.7 320.7 307.4 320.7 307.4 321 307.3 321 307.3L329.6 301.7 340.8 304 321.6 316.9C320.8 317.5 320.4 318.3 321 319.2 321.6 320 322.3 320.1 322.9 319.8 323.2 319.7 323.2 319.7 323.2 319.7L345.5 304.7 352.8 306.3 358 321.8 353.1 327.2 326.4 329.1C325.7 329 325 330 324.9 330.7 324.9 331.7 325.8 332.4 326.8 332.4L350 330.9 342.4 339.6 332.2 340.3C331.2 340.3 330.4 341 330.7 341.9 330.7 342.9 331.6 343.6 332.3 343.7L339.2 343 333.6 349.3C333.2 350.1 333.2 351.2 333.8 352 334.2 352.2 334.9 352.3 335.5 352.1 335.8 352 335.8 352 336 351.5L341.7 345.2 342.3 352.1C342.3 353.1 343.1 353.5 343.8 353.6 344.1 353.5 344.1 353.5 344.4 353.4 345 353.2 345.5 352.7 345.6 352L344.9 341.8 352.4 333.1 353.9 356.3C354.2 357.2 354.8 358 355.7 357.7 356.1 357.9 356.1 357.9 356.4 357.8 357 357.6 357.4 356.8 357.5 356.1L355.5 329.4 360.5 324 376.4 327 378.7 334 366.9 358C366.5 358.8 366.9 360 367.7 360.4S369.8 360.4 370.2 359.6L380.3 338.5 384 349.5 379.7 358.7C379.3 359.5 379.6 360.4 380.4 360.8 381.2 361.2 382.1 360.9 382.5 360.1L385.5 354 388.3 362.2C388.5 362.8 389.4 363.5 390.3 363.2 391.2 362.9 391.8 361.7 391.6 361L388.9 352.9 394.9 355.9C395.3 356.1 395.8 356.3 396.1 356.2 396.7 356 396.9 355.6 397.1 355.1 397.5 354.3 397.2 353.4 396.3 353L387.3 348.3 383.6 337.4 404.4 347.9C404.8 348.1 405.1 348 405.7 347.8 406 347.7 406.3 347.6 406.5 347.2 406.9 346.4 406.5 345.2 405.7 344.8L382.1 332.9 379.7 325.9 390.2 313.9 397.6 315.1 412.3 337.5C412.9 338 413.7 338.4 414.3 338.2 414.6 338 414.6 338 414.5 337.7 415.4 337.4 415.7 336.3 415.1 335.5L402.1 316.3 413.7 318.4 419.3 327C419.8 327.5 420.5 327.6 421.1 327.4 421.1 327.4 421.4 327.3 421.4 327.3 422.3 327 422.6 325.9 422 325.1L418 319.3 426.3 320.9C426.7 321.1 427 321 427.3 320.9 427.9 320.7 428.4 320.2 428.3 319.9 428.6 318.7 428 317.9 427.2 317.5L418.9 316 424.4 312.4C425.3 311.8 425.6 310.7 424.9 309.9 424.4 309.4 423.3 309.1 422.8 309.6L414.2 315.2 403 312.9 422.3 300C423.1 299.3 423.1 298.3 422.7 297.4 422.2 296.9 421.1 296.6 420.3 297.2ZM383.1 298.1L387.1 309.9 387.7 311.7 386.5 313.1 378.5 322.3 377 323.8 375.1 323.4 363.2 321 361.3 320.6 360.7 318.8 356.7 307 356.1 305.2 357.3 303.8 365.4 294.6 366.6 293.2 368.7 293.5 380.6 295.8 382.5 296.2 383.1 298.1Z" fill="rgba(51, 121, 194, 0.58)"></path><path d="M1386.6 482.7L1390 473.2 1394.6 478.1C1395 478.7 1396 478.8 1396.9 478.3 1397.4 477.6 1397.5 476.6 1397.1 476L1391.2 469.4 1394.3 460.6 1406.2 474.2C1407 475 1408 475.1 1408.5 474.4 1409.4 473.9 1409.5 472.9 1408.7 472.1L1395.6 457.1 1398.2 449 1417.4 445.2 1422.4 450.7 1415.3 470.8C1415.3 471.1 1415.4 471.4 1415.5 471.7 1415.5 472 1416 472.6 1416.3 472.8 1417.4 473.3 1418.3 472.8 1418.4 471.8L1424.9 453.5 1430.8 460.5 1427.8 469.9C1427.5 470 1427.6 470.3 1427.6 470.6 1427.8 471.2 1428.2 471.8 1428.9 472 1429.6 472.2 1430.5 471.6 1431 470.9L1433.4 463.2 1440.9 471.8C1441.4 472.4 1442.4 472.5 1443.3 472 1443.8 471.3 1443.9 470.3 1443.5 469.7L1436.3 461.7 1442.9 460.4C1443.8 460.2 1444.3 459.1 1444.2 458.5 1444 457.5 1443.2 456.7 1442.2 456.9L1433.7 458.6 1427.8 451.6 1445.4 448.1C1446.3 447.9 1446.8 447.2 1446.6 446.2 1446.4 445.3 1445.7 444.8 1444.7 445L1425.3 448.9 1419.9 443.1 1426.3 424.5 1433.5 423.1 1447 438.3C1447.5 439.2 1448.8 439.3 1449.3 438.5 1450.2 438 1450 437.1 1449.5 436.2L1437.3 422.3 1446.4 420.5 1452.3 427.5C1452.8 428.1 1454.1 428.1 1454.7 427.7S1455.3 425.9 1454.8 425L1450.2 419.8 1461.1 417.6C1462.1 417.4 1462.5 416.3 1462.3 415.4 1462.2 414.8 1461.4 413.9 1460.4 414.1L1449.5 416.3 1451.7 409.3C1451.9 408.7 1451.7 407.7 1450.6 407.3 1449.9 407.1 1448.7 407.7 1448.5 408.3L1445.7 417.1 1436.6 418.9 1442.6 401.4C1442.7 400.4 1442.5 399.4 1441.4 399 1440.8 398.8 1439.6 399.4 1439.4 400.1L1432.8 419.6 1425.6 421.1 1412.6 406.4 1415.3 399 1434.8 395.1C1435.7 394.9 1436.2 394.1 1436.1 393.2 1435.9 392.3 1435.1 391.4 1434.1 391.6L1416.5 395.1 1419.4 386.4 1427.8 384.7C1428.8 384.5 1429.3 383.8 1429.1 382.8 1428.9 381.9 1428.2 381.4 1427.2 381.6L1420.6 382.9 1424.1 372.7C1424.3 372 1423.8 370.9 1423.1 370.7 1422.1 370.5 1421.1 370.7 1421 371.7L1417.2 382.3 1412.2 376.4C1411.4 375.9 1410.4 375.8 1409.8 376.2 1409.3 376.7 1409.1 377.4 1409.2 378 1409.2 378 1409.3 378.3 1409.6 378.6L1416 386.1 1413.2 394.8 1400.2 380.4C1399.7 379.6 1398.7 379.4 1397.9 380.2 1397.7 380.6 1397.4 381 1397.5 381.6 1397.6 381.9 1397.7 382.3 1397.7 382.6L1412 398.3 1409.4 405.4 1390.3 409.2 1384.8 402.8 1391.1 383.9C1391.6 382.8 1391.1 381.9 1390.1 381.8 1389.3 381.3 1388.4 381.8 1388 382.9L1382.3 400 1376 393.1 1378.9 384.7C1379.1 384 1378.6 383.1 1377.8 382.6 1376.8 382.5 1375.9 382.7 1375.8 383.7L1373.4 390 1366.7 382.5C1366.2 381.7 1365.3 381.8 1364.4 382.4 1364.1 382.7 1364 383.4 1364.1 384 1364.1 384 1364.1 384.4 1364.2 384.7L1371.4 392.7 1363.5 394.3C1362.9 394.4 1362.1 395.2 1362.2 396.2 1362.4 397.1 1363.5 397.5 1364.1 397.4L1373.9 395.5 1380.1 402.4 1361 406.2C1360 406.4 1359.6 407.4 1359.8 408.4S1360.7 409.8 1361.7 409.6L1382.7 405.5 1387.8 411.3 1381.4 429.9 1373.2 431.5 1359.7 415.9C1358.9 415.4 1357.9 415.3 1357 415.8 1356.8 416.2 1356.6 416.9 1356.7 417.5 1356.8 417.8 1356.8 418.1 1357.2 418.4L1369.4 432.2 1360.3 434.1 1354.1 427.2C1353.6 426.6 1352.6 426.5 1351.7 427 1351.2 427.7 1351.1 428.7 1351.6 429.3L1356.6 434.8 1346.5 436.8C1345.9 436.9 1345.1 438.1 1345.3 438.7 1345.5 439.6 1346.6 440.4 1347.2 440.3L1357.3 438.3 1354.7 445C1354.7 445.3 1354.8 445.6 1354.9 445.9 1355 446.5 1355.4 447.1 1355.8 447.4 1356.8 447.5 1357.7 447 1358.2 446.2L1361 437.5 1370.1 435.7 1364.1 453.2C1363.7 454.3 1364.2 455.1 1364.9 455.3 1366 455.8 1366.8 455.3 1367.3 454.5L1373.9 434.9 1382 433.3 1395.1 448 1392.6 455.4 1371.6 459.5C1370.7 459.7 1370.2 460.5 1370.4 461.4 1370.5 462.4 1371.3 462.9 1372.2 462.7L1391.4 458.9 1388.2 467.7 1378.5 469.6C1377.9 469.7 1377.1 470.8 1377.3 471.8 1377.5 472.7 1378.6 473.2 1379.2 473L1387 471.5 1383.5 481.6C1383.6 482 1383.6 482 1383.6 482.3 1383.8 482.9 1384.2 483.5 1384.6 483.7 1385.6 483.8 1386.5 483.3 1386.6 482.7ZM1385.8 432.6L1384.5 430.9 1385.1 429.1 1390.3 414.1 1390.9 412.3 1392.8 411.9 1408.2 408.9 1410.1 408.5 1411.3 409.9 1421.8 421.8 1423.1 423.2 1422.5 425.3 1417.3 440 1416.7 442.1 1414.9 442.5 1399.5 445.5 1397.6 445.9 1396.3 444.2 1385.8 432.6Z" fill="rgba(51, 121, 194, 0.58)"></path></g><defs><mask id="SvgjsMask1000"><rect width="1440" height="560" fill="#ffffff"></rect></mask><filter id="SvgjsFilter1001"><feGaussianBlur stdDeviation="1"></feGaussianBlur></filter></defs></svg>