<svg xmlns="http://www.w3.org/2000/svg" version="1.1" xmlns:xlink="http://www.w3.org/1999/xlink" xmlns:svgjs="http://svgjs.dev/svgjs" width="1440" height="560" preserveAspectRatio="none" viewBox="0 0 1440 560"><g mask="url(&quot;#SvgjsMask1037&quot;)" fill="none"><rect width="1440" height="560" x="0" y="0" fill="#0e2a47"></rect><path d="M4.376,219.779C20.403,219.289,35.921,212.789,44.179,199.045C52.68,184.896,53.058,167.016,44.593,152.846C36.328,139.012,20.489,132.187,4.376,132.42C-11.309,132.647,-25.423,140.765,-33.875,153.98C-43.117,168.43,-48.501,186.787,-39.88,201.616C-31.29,216.392,-12.707,220.302,4.376,219.779" fill="rgba(10, 231, 212, 0.66)" class="triangle-float1"></path><path d="M891.0676899711012 558.5643696091898L921.2356070565007 504.14000651006046 824.5151038651069 486.10031243152594z" fill="rgba(10, 231, 212, 0.66)" class="triangle-float2"></path><path d="M318.53,362.883C336.823,363.12,350.592,348.104,359.448,332.095C367.968,316.693,370.479,298.754,362.755,282.937C353.949,264.904,338.598,248.407,318.53,248.306C298.34,248.205,282.159,264.236,273.529,282.489C266.058,298.291,270.867,315.808,279.404,331.06C288.205,346.782,300.514,362.65,318.53,362.883" fill="rgba(10, 231, 212, 0.66)" class="triangle-float3"></path><path d="M273.267,618.011C320.513,618.616,363.331,592.236,387.744,551.782C413.05,509.849,419.225,457.956,395.822,414.932C371.417,370.066,324.314,339.671,273.267,341.33C224.603,342.911,186.489,379.406,163.771,422.471C142.694,462.425,141.688,509.499,163.759,548.913C186.361,589.277,227.01,617.419,273.267,618.011" fill="rgba(10, 231, 212, 0.66)" class="triangle-float1"></path><path d="M739.602,260.908C767.268,260.324,793.993,249.648,808.917,226.346C825.108,201.066,829.133,169.259,815.395,142.567C800.468,113.566,772.219,91.509,739.602,91.673C707.22,91.836,680.539,114.849,665.119,143.324C650.478,170.36,648.573,203.41,665.026,229.383C680.505,253.819,710.682,261.518,739.602,260.908" fill="rgba(10, 231, 212, 0.66)" class="triangle-float3"></path><path d="M1191.11 413.95 a144.23 144.23 0 1 0 288.46 0 a144.23 144.23 0 1 0 -288.46 0z" fill="rgba(10, 231, 212, 0.66)" class="triangle-float2"></path><path d="M360.42450114826505 496.0326454236192L285.28744104185665 423.33511751197346 261.63336504133844 511.6133309520031z" fill="rgba(10, 231, 212, 0.66)" class="triangle-float1"></path><path d="M649.069,371.761C691.252,373.734,731.608,351.714,752.877,315.232C774.295,278.494,772.355,233.222,751.415,196.209C730.136,158.597,692.249,130.029,649.069,131.741C608.135,133.364,578.365,167.247,559.878,203.804C543.36,236.467,543.654,273.922,560.821,306.249C579.237,340.928,609.846,369.926,649.069,371.761" fill="rgba(10, 231, 212, 0.66)" class="triangle-float1"></path><path d="M440.3 392.8 a177.58 177.58 0 1 0 355.16 0 a177.58 177.58 0 1 0 -355.16 0z" fill="rgba(10, 231, 212, 0.66)" class="triangle-float3"></path><path d="M1354.7212392243223 83.55778525334892L1391.6405241631476 127.55647571520328 1439.1789173865163 50.1782030760381z" fill="rgba(10, 231, 212, 0.66)" class="triangle-float1"></path><path d="M803.05,421.008C854.876,423.374,905.626,400.749,933.343,356.893C963.024,309.93,969.842,249.519,941.706,201.615C913.878,154.234,857.997,134.549,803.05,135.055C749.096,135.552,693.92,156.404,668.747,204.128C644.81,249.509,664.841,302.247,691.853,345.868C717.096,386.632,755.153,418.821,803.05,421.008" fill="rgba(10, 231, 212, 0.66)" class="triangle-float2"></path><path d="M450.83 556.92 a123.6 123.6 0 1 0 247.2 0 a123.6 123.6 0 1 0 -247.2 0z" fill="rgba(10, 231, 212, 0.66)" class="triangle-float3"></path><path d="M942.67 37.27 a134.79 134.79 0 1 0 269.58 0 a134.79 134.79 0 1 0 -269.58 0z" fill="rgba(10, 231, 212, 0.66)" class="triangle-float1"></path><path d="M367.333,219.356C387.264,220.126,407.265,210.864,416.707,193.294C425.753,176.46,420.673,155.991,409.847,140.242C400.441,126.559,383.936,121.619,367.333,121.466C350.387,121.31,332.498,125.124,323.437,139.445C313.833,154.625,315.502,173.976,324.15,189.72C333.159,206.121,348.635,218.634,367.333,219.356" fill="rgba(10, 231, 212, 0.66)" class="triangle-float3"></path></g><defs><mask id="SvgjsMask1037"><rect width="1440" height="560" fill="#ffffff"></rect></mask><style>
                @keyframes float1 {
                    0%{transform: translate(0, 0)}
                    50%{transform: translate(-10px, 0)}
                    100%{transform: translate(0, 0)}
                }

                .triangle-float1 {
                    animation: float1 5s infinite;
                }

                @keyframes float2 {
                    0%{transform: translate(0, 0)}
                    50%{transform: translate(-5px, -5px)}
                    100%{transform: translate(0, 0)}
                }

                .triangle-float2 {
                    animation: float2 4s infinite;
                }

                @keyframes float3 {
                    0%{transform: translate(0, 0)}
                    50%{transform: translate(0, -10px)}
                    100%{transform: translate(0, 0)}
                }

                .triangle-float3 {
                    animation: float3 6s infinite;
                }
            </style></defs></svg>