<svg xmlns="http://www.w3.org/2000/svg" version="1.1" xmlns:xlink="http://www.w3.org/1999/xlink" xmlns:svgjs="http://svgjs.dev/svgjs" width="1440" height="560" preserveAspectRatio="none" viewBox="0 0 1440 560"><g mask="url(&quot;#SvgjsMask1107&quot;)" fill="none"><rect width="1440" height="560" x="0" y="0" fill="rgba(81, 46, 95, 1)"></rect><path d="M0,652.35C119.264,669.317,218.156,561.481,313.635,488.026C402.156,419.924,487.434,345.367,532.091,242.998C576.32,141.61,564.39,29.814,561.766,-80.77C558.788,-206.275,580.441,-339.305,515.723,-446.877C446.729,-561.556,333.498,-669.953,200.187,-681.773C67.816,-693.509,-29.794,-565.494,-148.507,-505.77C-242.245,-458.611,-345.836,-437.341,-424.255,-367.619C-510.515,-290.926,-591.533,-201.248,-617.51,-88.785C-644.468,27.923,-639.202,162.744,-569.216,259.952C-501.409,354.132,-356.638,340.398,-261.091,406.265C-160.59,475.547,-120.85,635.158,0,652.35" fill="#351e3e"></path><path d="M1440 960.485C1521.968 958.275 1608.749 974.134 1679.381 932.483 1750.9479999999999 890.281 1791.087 811.609 1822.7359999999999 734.79 1853.503 660.111 1865.6689999999999 580.324 1857.575 499.962 1849.222 417.028 1832.7069999999999 329.93399999999997 1775.824 269.006 1719.658 208.84500000000003 1634.395 188.23700000000002 1553.32 174.067 1478.842 161.05 1402.226 163.973 1331.769 191.399 1264.883 217.435 1216.077 271.024 1167.799 324.13599999999997 1118.409 378.472 1058.528 430.969 1047.958 503.633 1037.383 576.33 1088.891 640.101 1111.679 709.939 1137.964 790.491 1124.82 894.2139999999999 1192.179 945.617 1259.327 996.858 1355.565 962.761 1440 960.485" fill="#6d3e80"></path></g><defs><mask id="SvgjsMask1107"><rect width="1440" height="560" fill="#ffffff"></rect></mask></defs></svg>