<svg xmlns="http://www.w3.org/2000/svg" version="1.1" xmlns:xlink="http://www.w3.org/1999/xlink" xmlns:svgjs="http://svgjs.dev/svgjs" width="1440" height="560" preserveAspectRatio="none" viewBox="0 0 1440 560"><g mask="url(&quot;#SvgjsMask2108&quot;)" fill="none"><rect width="1440" height="560" x="0" y="0" fill="url(&quot;#SvgjsLinearGradient2109&quot;)"></rect><path d="M 0,133 C 72,151 216,241 360,223 C 504,205 576,51.4 720,43 C 864,34.6 936,181.2 1080,181 C 1224,180.8 1368,69.8 1440,42L1440 560L0 560z" fill="rgba(100, 23, 97, 1)"></path><path d="M 0,507 C 32,480.6 96,384 160,375 C 224,366 256,457.8 320,462 C 384,466.2 416,385.8 480,396 C 544,406.2 576,515 640,513 C 704,511 736,403.2 800,386 C 864,368.8 896,440.8 960,427 C 1024,413.2 1056,310.2 1120,317 C 1184,323.8 1216,451.6 1280,461 C 1344,470.4 1408,383.4 1440,364L1440 560L0 560z" fill="rgba(203, 166, 233, 1)"></path></g><defs><mask id="SvgjsMask2108"><rect width="1440" height="560" fill="#ffffff"></rect></mask><linearGradient x1="15.28%" y1="-39.29%" x2="84.72%" y2="139.29%" gradientUnits="userSpaceOnUse" id="SvgjsLinearGradient2109"><stop stop-color="#0e2a47" offset="0"></stop><stop stop-color="rgba(15, 214, 200, 1)" offset="1"></stop></linearGradient></defs></svg>