<svg xmlns="http://www.w3.org/2000/svg" version="1.1" xmlns:xlink="http://www.w3.org/1999/xlink" xmlns:svgjs="http://svgjs.dev/svgjs" width="1440" height="560" preserveAspectRatio="none" viewBox="0 0 1440 560"><g mask="url(&quot;#SvgjsMask1010&quot;)" fill="none"><rect width="1440" height="560" x="0" y="0" fill="url(&quot;#SvgjsLinearGradient1011&quot;)"></rect><path d="M1191.01 414.55 a42.21 42.21 0 1 0 84.42 0 a42.21 42.21 0 1 0 -84.42 0z" stroke="rgba(48, 209, 222, 1)"></path><path d="M1180.73 482.39L1220.97 482.39L1220.97 498.18L1180.73 498.18z" stroke="rgba(48, 209, 222, 1)"></path><path d="M1239.32 16.45L1270.09 16.45L1270.09 47.22L1239.32 47.22z" fill="rgba(66, 88, 90, 1)"></path><path d="M779.98 142.3L792.59 142.3L792.59 165.41L779.98 165.41z" fill="rgba(207, 71, 146, 1)"></path><path d="M962.12 234.97 a8.36 8.36 0 1 0 16.72 0 a8.36 8.36 0 1 0 -16.72 0z" stroke="rgba(207, 71, 146, 1)"></path><path d="M1095.01 9.33 a31.33 31.33 0 1 0 62.66 0 a31.33 31.33 0 1 0 -62.66 0z" stroke="rgba(207, 71, 146, 1)"></path><path d="M140.82 175.62 a19.62 19.62 0 1 0 39.24 0 a19.62 19.62 0 1 0 -39.24 0z" fill="#d3b714"></path><path d="M1384.25 460.54 a10.69 10.69 0 1 0 21.38 0 a10.69 10.69 0 1 0 -21.38 0z" fill="#037b0b"></path><path d="M745.28 275.66L772.99 275.66L772.99 303.37L745.28 303.37z" stroke="#037b0b"></path><path d="M275.12 516.3 a36.33 36.33 0 1 0 72.66 0 a36.33 36.33 0 1 0 -72.66 0z" fill="rgba(66, 88, 90, 1)"></path><path d="M469.18 197.46a6.27 6.27 0 1 0 5.97-11.02z" fill="rgba(66, 88, 90, 1)"></path><path d="M641.21 415.15a12.57 12.57 0 1 0-1.39 25.1z" stroke="#037b0b"></path><path d="M146.67 284.15L174.61 284.15L174.61 310.86L146.67 310.86z" stroke="#e73635"></path><path d="M1189.4 525.4 a35.4 35.4 0 1 0 70.8 0 a35.4 35.4 0 1 0 -70.8 0z" fill="rgba(48, 209, 222, 1)"></path><path d="M792.94 409.54L804.2 409.54L804.2 420.8L792.94 420.8z" stroke="#037b0b"></path><path d="M677.98 103.35L687.79 103.35L687.79 113.16L677.98 113.16z" fill="rgba(66, 88, 90, 1)"></path><path d="M376.5 269.52a45.14 45.14 0 1 0-65.53-62.1z" stroke="#037b0b"></path><path d="M1325.1 406.89a28.44 28.44 0 1 0-38.42 41.95z" fill="rgba(207, 71, 146, 1)"></path><path d="M1160.07 539.78a14.19 14.19 0 1 0 4.52 28.02z" fill="rgba(207, 71, 146, 1)"></path><path d="M425.56 143.67L455.6 143.67L455.6 173.71L425.56 173.71z" fill="rgba(207, 71, 146, 1)"></path><path d="M1031.59 312.76L1056.65 312.76L1056.65 368.41L1031.59 368.41z" stroke="rgba(48, 209, 222, 1)"></path><path d="M35.52 548.11L72.84 548.11L72.84 585.43L35.52 585.43z" fill="rgba(88, 101, 3, 1)"></path><path d="M737.92 24.61 a49.17 49.17 0 1 0 98.34 0 a49.17 49.17 0 1 0 -98.34 0z" stroke="#e73635"></path><path d="M312.6 400.07L327.54 400.07L327.54 450.82L312.6 450.82z" stroke="rgba(66, 88, 90, 1)"></path><path d="M202.45 392.98 a15.77 15.77 0 1 0 31.54 0 a15.77 15.77 0 1 0 -31.54 0z" stroke="rgba(88, 101, 3, 1)"></path><path d="M692.77 346.37L714.19 346.37L714.19 367.79L692.77 367.79z" stroke="rgba(66, 88, 90, 1)"></path><path d="M380.53 337.24L435.26 337.24L435.26 362.84L380.53 362.84z" fill="#e73635"></path><path d="M817.7 476.34L822.67 476.34L822.67 481.31L817.7 481.31z" stroke="#037b0b"></path><path d="M1147.28 501.84L1163.49 501.84L1163.49 518.05L1147.28 518.05z" stroke="rgba(66, 88, 90, 1)"></path><path d="M594.95 457.22a17.25 17.25 0 1 0 11.71-32.45z" stroke="rgba(48, 209, 222, 1)"></path><path d="M550.02 374.6L595.61 374.6L595.61 425.2L550.02 425.2z" fill="#037b0b"></path><path d="M977.04 281.58a29.64 29.64 0 1 0-51.87 28.69z" stroke="rgba(207, 71, 146, 1)"></path><path d="M872.76 242.85L907.9 242.85L907.9 277.99L872.76 277.99z" fill="rgba(88, 101, 3, 1)"></path></g><defs><mask id="SvgjsMask1010"><rect width="1440" height="560" fill="#ffffff"></rect></mask><linearGradient x1="15.28%" y1="-39.29%" x2="84.72%" y2="139.29%" gradientUnits="userSpaceOnUse" id="SvgjsLinearGradient1011"><stop stop-color="#0e2a47" offset="0"></stop><stop stop-color="#00459e" offset="1"></stop></linearGradient></defs></svg>