<svg xmlns="http://www.w3.org/2000/svg" version="1.1" xmlns:xlink="http://www.w3.org/1999/xlink" xmlns:svgjs="http://svgjs.dev/svgjs" width="1440" height="560" preserveAspectRatio="none" viewBox="0 0 1440 560"><g clip-path="url(&quot;#SvgjsClipPath1062&quot;)" fill="none"><rect width="1440" height="560" x="0" y="0" fill="url(&quot;#SvgjsLinearGradient1063&quot;)"></rect><circle r="93.335" cx="7.19" cy="-25.52" stroke="#b5eb02" stroke-opacity="0.25" stroke-width="2"></circle><circle r="93.335" cx="448.33" cy="338.18" stroke="#b5eb02" stroke-opacity="0.25" stroke-width="2"></circle><circle r="93.335" cx="741.63" cy="769.66" stroke="#b5eb02" stroke-opacity="0.25" stroke-width="2"></circle><circle r="47.175" cx="744.38" cy="346.81" stroke="#b5eb02" stroke-opacity="0.25" stroke-width="2"></circle><circle r="107.35" cx="284.39" cy="430.22" stroke="#b5eb02" stroke-opacity="0.25" stroke-width="2"></circle><circle r="124.805" cx="821.23" cy="540.58" stroke="#b5eb02" stroke-opacity="0.25" stroke-width="2"></circle><circle r="149.405" cx="123.75" cy="410.43" stroke="#b5eb02" stroke-opacity="0.25" stroke-width="2"></circle><circle r="48.485" cx="1239.1" cy="122.44" stroke="#b5eb02" stroke-opacity="0.25" stroke-width="2"></circle><circle r="60.97" cx="188.77" cy="365.29" stroke="#b5eb02" stroke-opacity="0.25" stroke-width="2"></circle><circle r="182.665" cx="1060.44" cy="526.74" stroke="#b5eb02" stroke-opacity="0.25" stroke-width="2"></circle><circle r="68.82" cx="70.82" cy="341.09" stroke="#b5eb02" stroke-opacity="0.25" stroke-width="2"></circle><circle r="123.22" cx="403.42" cy="395.12" stroke="#b5eb02" stroke-opacity="0.25" stroke-width="2"></circle><circle r="161.655" cx="951.46" cy="228.51" stroke="#b5eb02" stroke-opacity="0.25" stroke-width="2"></circle><circle r="82.425" cx="1333.71" cy="350.94" stroke="#b5eb02" stroke-opacity="0.25" stroke-width="2"></circle><circle r="104.83" cx="1435.62" cy="62.36" stroke="#b5eb02" stroke-opacity="0.25" stroke-width="2"></circle><circle r="89.47" cx="260.5" cy="254.12" stroke="#b5eb02" stroke-opacity="0.25" stroke-width="2"></circle><circle r="186.165" cx="410.66" cy="547.27" stroke="#b5eb02" stroke-opacity="0.25" stroke-width="2"></circle><circle r="56.295" cx="899.48" cy="447.28" stroke="#b5eb02" stroke-opacity="0.25" stroke-width="2"></circle><circle r="111.915" cx="1245.28" cy="314.66" stroke="#b5eb02" stroke-opacity="0.25" stroke-width="2"></circle><circle r="73.135" cx="495.4" cy="549.79" stroke="#b5eb02" stroke-opacity="0.25" stroke-width="2"></circle><circle r="127.11" cx="134.74" cy="27.65" stroke="#b5eb02" stroke-opacity="0.25" stroke-width="2"></circle><circle r="115.165" cx="875.1" cy="377.66" stroke="#b5eb02" stroke-opacity="0.25" stroke-width="2"></circle><circle r="164.485" cx="401.66" cy="229.25" stroke="#b5eb02" stroke-opacity="0.25" stroke-width="2"></circle><circle r="164.345" cx="273.48" cy="325.74" stroke="#b5eb02" stroke-opacity="0.25" stroke-width="2"></circle><circle r="81.495" cx="1050.44" cy="97.78" stroke="#b5eb02" stroke-opacity="0.25" stroke-width="2"></circle><circle r="79.905" cx="609.24" cy="28.02" stroke="#b5eb02" stroke-opacity="0.25" stroke-width="2"></circle><circle r="147.325" cx="59.73" cy="410.77" stroke="#b5eb02" stroke-opacity="0.25" stroke-width="2"></circle><circle r="125.53" cx="800.29" cy="342.33" stroke="#b5eb02" stroke-opacity="0.25" stroke-width="2"></circle><circle r="60.555" cx="1187.39" cy="203.41" stroke="#b5eb02" stroke-opacity="0.25" stroke-width="2"></circle><circle r="137.63" cx="1056.46" cy="10.21" stroke="#b5eb02" stroke-opacity="0.25" stroke-width="2"></circle><circle r="102.485" cx="302.89" cy="169.78" stroke="#b5eb02" stroke-opacity="0.25" stroke-width="2"></circle><circle r="120.25" cx="851.81" cy="463.48" stroke="#b5eb02" stroke-opacity="0.25" stroke-width="2"></circle><circle r="140.82" cx="55.05" cy="6.46" stroke="#b5eb02" stroke-opacity="0.25" stroke-width="2"></circle><circle r="85.435" cx="888.01" cy="494.77" stroke="#b5eb02" stroke-opacity="0.25" stroke-width="2"></circle><circle r="89.885" cx="296.66" cy="357.75" stroke="#b5eb02" stroke-opacity="0.25" stroke-width="2"></circle><circle r="155.625" cx="1291.74" cy="24.58" stroke="#b5eb02" stroke-opacity="0.25" stroke-width="2"></circle><circle r="160.51" cx="662.34" cy="334.71" stroke="#b5eb02" stroke-opacity="0.25" stroke-width="2"></circle><circle r="70.655" cx="187.4" cy="305.01" stroke="#b5eb02" stroke-opacity="0.25" stroke-width="2"></circle><circle r="171.155" cx="728.62" cy="143.55" stroke="#b5eb02" stroke-opacity="0.25" stroke-width="2"></circle><circle r="53.995" cx="548.31" cy="313.9" stroke="#b5eb02" stroke-opacity="0.25" stroke-width="2"></circle><circle r="129.845" cx="866.28" cy="206.71" stroke="#b5eb02" stroke-opacity="0.25" stroke-width="2"></circle><circle r="85.51" cx="636.04" cy="52.6" stroke="#b5eb02" stroke-opacity="0.25" stroke-width="2"></circle><circle r="80.51" cx="654.18" cy="452.41" stroke="#b5eb02" stroke-opacity="0.25" stroke-width="2"></circle><circle r="134.75" cx="1049.13" cy="394.8" stroke="#b5eb02" stroke-opacity="0.25" stroke-width="2"></circle><circle r="86.185" cx="587.48" cy="470.8" stroke="#b5eb02" stroke-opacity="0.25" stroke-width="2"></circle><circle r="176.955" cx="797.82" cy="103.09" stroke="#b5eb02" stroke-opacity="0.25" stroke-width="2"></circle><circle r="53.65" cx="1123.26" cy="237.17" stroke="#b5eb02" stroke-opacity="0.25" stroke-width="2"></circle><circle r="119.41" cx="1049.04" cy="430.62" stroke="#b5eb02" stroke-opacity="0.25" stroke-width="2"></circle><circle r="127.42" cx="733.11" cy="391.54" stroke="#b5eb02" stroke-opacity="0.25" stroke-width="2"></circle><circle r="160.86" cx="335.56" cy="521.67" stroke="#b5eb02" stroke-opacity="0.25" stroke-width="2"></circle><circle r="168.565" cx="758.14" cy="208.6" stroke="#b5eb02" stroke-opacity="0.25" stroke-width="2"></circle><circle r="153" cx="2.88" cy="252.51" stroke="#b5eb02" stroke-opacity="0.25" stroke-width="2"></circle><circle r="139.075" cx="828.47" cy="468.95" stroke="#b5eb02" stroke-opacity="0.25" stroke-width="2"></circle><circle r="135.41" cx="104.19" cy="115.05" stroke="#b5eb02" stroke-opacity="0.25" stroke-width="2"></circle><circle r="97.815" cx="611.7" cy="110.27" stroke="#b5eb02" stroke-opacity="0.25" stroke-width="2"></circle><circle r="108.69" cx="879.17" cy="517.61" stroke="#b5eb02" stroke-opacity="0.25" stroke-width="2"></circle><circle r="97.33" cx="1401.74" cy="35.35" stroke="#b5eb02" stroke-opacity="0.25" stroke-width="2"></circle><circle r="56.98" cx="390.55" cy="143.75" stroke="#b5eb02" stroke-opacity="0.25" stroke-width="2"></circle><circle r="133.87" cx="591.84" cy="175.56" stroke="#b5eb02" stroke-opacity="0.25" stroke-width="2"></circle><circle r="164.46" cx="1252.9" cy="140.03" stroke="#b5eb02" stroke-opacity="0.25" stroke-width="2"></circle><circle r="101.355" cx="11.62" cy="217.21" stroke="#b5eb02" stroke-opacity="0.25" stroke-width="2"></circle><circle r="137.16" cx="331.2" cy="452.54" stroke="#b5eb02" stroke-opacity="0.25" stroke-width="2"></circle><circle r="118.04" cx="1074.52" cy="546.64" stroke="#b5eb02" stroke-opacity="0.25" stroke-width="2"></circle><circle r="58.47" cx="37.63" cy="528.48" stroke="#b5eb02" stroke-opacity="0.25" stroke-width="2"></circle><circle r="132.325" cx="558.9" cy="557.47" stroke="#b5eb02" stroke-opacity="0.25" stroke-width="2"></circle><circle r="53.33" cx="1176.86" cy="544.31" stroke="#b5eb02" stroke-opacity="0.25" stroke-width="2"></circle><circle r="140.505" cx="49.26" cy="266.81" stroke="#b5eb02" stroke-opacity="0.25" stroke-width="2"></circle><circle r="184.815" cx="1171" cy="500.79" stroke="#b5eb02" stroke-opacity="0.25" stroke-width="2"></circle><circle r="155.12" cx="211.89" cy="59.77" stroke="#b5eb02" stroke-opacity="0.25" stroke-width="2"></circle><circle r="146.44" cx="888.87" cy="346.09" stroke="#b5eb02" stroke-opacity="0.25" stroke-width="2"></circle><circle r="118.75" cx="926.9" cy="557.42" stroke="#b5eb02" stroke-opacity="0.25" stroke-width="2"></circle><circle r="92.595" cx="979.74" cy="235.65" stroke="#b5eb02" stroke-opacity="0.25" stroke-width="2"></circle><circle r="53.63" cx="1033.72" cy="237.23" stroke="#b5eb02" stroke-opacity="0.25" stroke-width="2"></circle><circle r="49.905" cx="823.61" cy="25.46" stroke="#b5eb02" stroke-opacity="0.25" stroke-width="2"></circle><circle r="106.375" cx="996.78" cy="295.88" stroke="#b5eb02" stroke-opacity="0.25" stroke-width="2"></circle><circle r="157.2" cx="721.3" cy="144.52" stroke="#b5eb02" stroke-opacity="0.25" stroke-width="2"></circle><circle r="139.225" cx="1283.1" cy="355.25" stroke="#b5eb02" stroke-opacity="0.25" stroke-width="2"></circle><circle r="47.53" cx="705.28" cy="442.32" stroke="#b5eb02" stroke-opacity="0.25" stroke-width="2"></circle><circle r="146.095" cx="337.87" cy="507.22" stroke="#b5eb02" stroke-opacity="0.25" stroke-width="2"></circle><circle r="93.015" cx="285.03" cy="8.27" stroke="#b5eb02" stroke-opacity="0.25" stroke-width="2"></circle><circle r="110.94" cx="1252.42" cy="512.64" stroke="#b5eb02" stroke-opacity="0.25" stroke-width="2"></circle><circle r="64.55" cx="768.84" cy="328.9" stroke="#b5eb02" stroke-opacity="0.25" stroke-width="2"></circle><circle r="144.62" cx="259.08" cy="52.94" stroke="#b5eb02" stroke-opacity="0.25" stroke-width="2"></circle><circle r="162.905" cx="883.15" cy="525.45" stroke="#b5eb02" stroke-opacity="0.25" stroke-width="2"></circle><circle r="83.405" cx="357.52" cy="500.05" stroke="#b5eb02" stroke-opacity="0.25" stroke-width="2"></circle><circle r="79.485" cx="822.43" cy="519.2" stroke="#b5eb02" stroke-opacity="0.25" stroke-width="2"></circle><circle r="144.765" cx="283.57" cy="246.2" stroke="#b5eb02" stroke-opacity="0.25" stroke-width="2"></circle><circle r="101.47" cx="587" cy="164.85" stroke="#b5eb02" stroke-opacity="0.25" stroke-width="2"></circle><circle r="113.965" cx="682.66" cy="488.66" stroke="#b5eb02" stroke-opacity="0.25" stroke-width="2"></circle><circle r="131.225" cx="829.79" cy="190.96" stroke="#b5eb02" stroke-opacity="0.25" stroke-width="2"></circle><circle r="71.81" cx="753.68" cy="254.62" stroke="#b5eb02" stroke-opacity="0.25" stroke-width="2"></circle><circle r="148.075" cx="1075.31" cy="244.29" stroke="#b5eb02" stroke-opacity="0.25" stroke-width="2"></circle><circle r="122.415" cx="980.56" cy="239.86" stroke="#b5eb02" stroke-opacity="0.25" stroke-width="2"></circle><circle r="165.78" cx="1409.28" cy="120.63" stroke="#b5eb02" stroke-opacity="0.25" stroke-width="2"></circle><circle r="136.585" cx="73.69" cy="202.26" stroke="#b5eb02" stroke-opacity="0.25" stroke-width="2"></circle><circle r="70.115" cx="318.36" cy="44.46" stroke="#b5eb02" stroke-opacity="0.25" stroke-width="2"></circle><circle r="129.625" cx="92.54" cy="118.93" stroke="#b5eb02" stroke-opacity="0.25" stroke-width="2"></circle><circle r="132.82" cx="404.92" cy="288.48" stroke="#b5eb02" stroke-opacity="0.25" stroke-width="2"></circle><circle r="92.56" cx="676.99" cy="411.93" stroke="#b5eb02" stroke-opacity="0.25" stroke-width="2"></circle><circle r="148.9" cx="302.17" cy="360.16" stroke="#b5eb02" stroke-opacity="0.25" stroke-width="2"></circle><circle r="148.155" cx="1375.7" cy="273.72" stroke="#b5eb02" stroke-opacity="0.25" stroke-width="2"></circle><circle r="91.22" cx="1274.47" cy="24.03" stroke="#b5eb02" stroke-opacity="0.25" stroke-width="2"></circle><circle r="90" cx="534.25" cy="257.95" stroke="#b5eb02" stroke-opacity="0.25" stroke-width="2"></circle><circle r="93.345" cx="907.39" cy="416.53" stroke="#b5eb02" stroke-opacity="0.25" stroke-width="2"></circle><circle r="99.255" cx="119.23" cy="15.06" stroke="#b5eb02" stroke-opacity="0.25" stroke-width="2"></circle><circle r="182.925" cx="1342.45" cy="63.44" stroke="#b5eb02" stroke-opacity="0.25" stroke-width="2"></circle><circle r="159.5" cx="1376.26" cy="305.08" stroke="#b5eb02" stroke-opacity="0.25" stroke-width="2"></circle><circle r="137.905" cx="1250.67" cy="232.91" stroke="#b5eb02" stroke-opacity="0.25" stroke-width="2"></circle><circle r="67.41" cx="134.86" cy="108.16" stroke="#b5eb02" stroke-opacity="0.25" stroke-width="2"></circle><circle r="110.235" cx="163.8" cy="227.15" stroke="#b5eb02" stroke-opacity="0.25" stroke-width="2"></circle><circle r="144.07" cx="1256.05" cy="47.99" stroke="#b5eb02" stroke-opacity="0.25" stroke-width="2"></circle><circle r="62.765" cx="415.14" cy="49.04" stroke="#b5eb02" stroke-opacity="0.25" stroke-width="2"></circle><circle r="168.815" cx="1232.09" cy="551.76" stroke="#b5eb02" stroke-opacity="0.25" stroke-width="2"></circle><circle r="153.22" cx="793.37" cy="50.01" stroke="#b5eb02" stroke-opacity="0.25" stroke-width="2"></circle><circle r="117.75" cx="1054.75" cy="167.95" stroke="#b5eb02" stroke-opacity="0.25" stroke-width="2"></circle><circle r="117.69" cx="413.1" cy="199.57" stroke="#b5eb02" stroke-opacity="0.25" stroke-width="2"></circle><circle r="177.255" cx="822.93" cy="217.35" stroke="#b5eb02" stroke-opacity="0.25" stroke-width="2"></circle><circle r="147.46" cx="270.67" cy="183.88" stroke="#b5eb02" stroke-opacity="0.25" stroke-width="2"></circle><circle r="121.325" cx="73.25" cy="479.45" stroke="#b5eb02" stroke-opacity="0.25" stroke-width="2"></circle><circle r="126.06" cx="607.68" cy="104.11" stroke="#b5eb02" stroke-opacity="0.25" stroke-width="2"></circle><circle r="183.875" cx="1254.94" cy="425.52" stroke="#b5eb02" stroke-opacity="0.25" stroke-width="2"></circle><circle r="77.225" cx="1136.28" cy="443.11" stroke="#b5eb02" stroke-opacity="0.25" stroke-width="2"></circle><circle r="77.5" cx="292.2" cy="479.97" stroke="#b5eb02" stroke-opacity="0.25" stroke-width="2"></circle><circle r="164.245" cx="342.06" cy="442.27" stroke="#b5eb02" stroke-opacity="0.25" stroke-width="2"></circle><circle r="168.22" cx="1001.06" cy="89.3" stroke="#b5eb02" stroke-opacity="0.25" stroke-width="2"></circle><circle r="73.115" cx="776.71" cy="441.21" stroke="#b5eb02" stroke-opacity="0.25" stroke-width="2"></circle><circle r="132.38" cx="534.77" cy="492.88" stroke="#b5eb02" stroke-opacity="0.25" stroke-width="2"></circle><circle r="110.875" cx="606.74" cy="418.71" stroke="#b5eb02" stroke-opacity="0.25" stroke-width="2"></circle><circle r="63.885" cx="414.65" cy="296.54" stroke="#b5eb02" stroke-opacity="0.25" stroke-width="2"></circle><circle r="49.545" cx="93.69" cy="359.81" stroke="#b5eb02" stroke-opacity="0.25" stroke-width="2"></circle><circle r="61.77" cx="282.89" cy="401.78" stroke="#b5eb02" stroke-opacity="0.25" stroke-width="2"></circle><circle r="81.475" cx="1262.43" cy="509.02" stroke="#b5eb02" stroke-opacity="0.25" stroke-width="2"></circle><circle r="87.345" cx="73.13" cy="552.15" stroke="#b5eb02" stroke-opacity="0.25" stroke-width="2"></circle><circle r="169.1" cx="36.92" cy="106.38" stroke="#b5eb02" stroke-opacity="0.25" stroke-width="2"></circle><circle r="123.345" cx="216.88" cy="542.27" stroke="#b5eb02" stroke-opacity="0.25" stroke-width="2"></circle><circle r="148.61" cx="986.18" cy="255.58" stroke="#b5eb02" stroke-opacity="0.25" stroke-width="2"></circle><circle r="177.71" cx="308.58" cy="41.62" stroke="#b5eb02" stroke-opacity="0.25" stroke-width="2"></circle><circle r="140.635" cx="513.33" cy="131.99" stroke="#b5eb02" stroke-opacity="0.25" stroke-width="2"></circle><circle r="164.75" cx="307.97" cy="113.56" stroke="#b5eb02" stroke-opacity="0.25" stroke-width="2"></circle><circle r="71.53" cx="1033.9" cy="202.8" stroke="#b5eb02" stroke-opacity="0.25" stroke-width="2"></circle><circle r="91.445" cx="1432.85" cy="241.64" stroke="#b5eb02" stroke-opacity="0.25" stroke-width="2"></circle><circle r="164.905" cx="1296.03" cy="255.45" stroke="#b5eb02" stroke-opacity="0.25" stroke-width="2"></circle><circle r="173.69" cx="1279.34" cy="375.43" stroke="#b5eb02" stroke-opacity="0.25" stroke-width="2"></circle><circle r="69.64" cx="457.73" cy="345.14" stroke="#b5eb02" stroke-opacity="0.25" stroke-width="2"></circle><circle r="124.72" cx="553.23" cy="415.88" stroke="#b5eb02" stroke-opacity="0.25" stroke-width="2"></circle><circle r="139.505" cx="1194.48" cy="301.01" stroke="#b5eb02" stroke-opacity="0.25" stroke-width="2"></circle><circle r="151.64" cx="497.54" cy="166.48" stroke="#b5eb02" stroke-opacity="0.25" stroke-width="2"></circle><circle r="134.97" cx="270.1" cy="550.47" stroke="#b5eb02" stroke-opacity="0.25" stroke-width="2"></circle><circle r="148.73" cx="1434.26" cy="531.37" stroke="#b5eb02" stroke-opacity="0.25" stroke-width="2"></circle><circle r="105.135" cx="760.48" cy="59.29" stroke="#b5eb02" stroke-opacity="0.25" stroke-width="2"></circle></g><defs><clipPath id="SvgjsClipPath1062"><rect width="1440" height="560" x="0" y="0"></rect></clipPath><linearGradient x1="15.28%" y1="-39.29%" x2="84.72%" y2="139.29%" gradientUnits="userSpaceOnUse" id="SvgjsLinearGradient1063"><stop stop-color="#0e2a47" offset="0"></stop><stop stop-color="rgba(158, 0, 140, 1)" offset="1"></stop></linearGradient></defs></svg>